<svg width="504" height="210" viewBox="0 0 504 210" fill="none" xmlns="http://www.w3.org/2000/svg">
<g opacity="0.5">
<path d="M88.6445 132.902C87.2598 132.902 86.0653 132.542 85.1879 131.802C83.5918 130.458 83.3275 128.066 84.4797 125.229L96.8895 94.5174C98.5914 90.3159 103.073 86.0086 107.798 84.0402C110.483 82.9289 112.925 82.7173 114.68 83.4687L136.518 92.6971C138.009 93.3321 138.876 94.5492 139.003 96.2213C139.32 100.137 135.578 105.587 130.314 108.889L96.065 130.373C93.4118 132.034 90.7903 132.902 88.6445 132.902ZM112.291 83.8179C111.054 83.8179 109.627 84.1354 108.094 84.7704C103.549 86.6542 99.2467 90.7816 97.6189 94.8137L85.2091 125.526C84.1837 128.055 84.3634 130.066 85.6953 131.188C87.6614 132.839 91.562 132.246 95.6422 129.696L129.891 108.212C135.631 104.614 138.463 99.375 138.21 96.2742C138.104 94.8984 137.428 93.9353 136.201 93.4274L114.363 84.1989C113.771 83.9449 113.073 83.8179 112.291 83.8179Z" fill="url(#paint0_linear)"/>
<path d="M87.8834 136.649C86.5727 136.649 85.431 136.331 84.5431 135.675C82.7567 134.373 82.3127 131.992 83.2852 128.976L94.0566 95.6286C96.5407 87.9136 106.784 80.643 112.618 82.421L137.681 90.0937C139.404 90.6228 140.472 91.8399 140.768 93.6178C141.434 97.6923 137.819 103.704 132.375 107.609L96.5407 133.283C93.4541 135.495 90.3675 136.649 87.8834 136.649ZM110.663 82.9501C105.113 82.9501 96.9106 89.374 94.8071 95.8826L84.0357 129.219C83.1795 131.886 83.5178 133.95 84.9977 135.04C87.2809 136.712 91.7311 135.749 96.065 132.648L131.899 106.974C137.85 102.709 140.504 96.9833 139.975 93.7554C139.732 92.2738 138.886 91.3002 137.449 90.8662L112.386 83.1935C111.847 83.0242 111.265 82.9501 110.663 82.9501Z" fill="url(#paint1_linear)"/>
<path d="M87.3443 140.638C86.1287 140.638 85.0505 140.374 84.1731 139.813C82.2176 138.575 81.5622 136.162 82.3233 133.019L91.0123 97.0679C93.0207 88.7708 103.612 80.2091 110.219 81.532L138.707 87.2786C140.694 87.6808 141.994 88.8872 142.459 90.7816C143.506 95.0572 140.165 101.502 134.499 106.106L97.3123 136.31C93.8663 139.115 90.23 140.638 87.3443 140.638ZM108.781 82.1881C102.587 82.1881 93.5386 89.9667 91.7839 97.2479L83.0949 133.199C82.4184 135.993 82.9575 138.099 84.5959 139.136C86.8369 140.554 91.4774 140.035 96.8155 135.696L133.992 105.481C140.091 100.529 142.512 94.3058 141.687 90.9615C141.296 89.3846 140.218 88.3792 138.548 88.0406L110.06 82.294C109.648 82.2199 109.225 82.1881 108.781 82.1881Z" fill="url(#paint2_linear)"/>
<path d="M87.1752 144.882C86.0547 144.882 85.0293 144.66 84.152 144.184C82.0167 143.03 81.1183 140.596 81.6362 137.337L87.7777 98.8354C89.1941 89.9562 100.061 80.0187 107.492 80.8018L139.573 84.2096C141.857 84.453 143.41 85.6488 144.076 87.6702C145.524 92.0622 142.417 99.0576 136.698 104.307L98.4751 139.4C94.6485 142.924 90.4732 144.882 87.1752 144.882ZM106.646 81.5532C99.7224 81.5532 89.8495 90.8981 88.5599 98.9624L82.4184 137.464C81.9533 140.374 82.7038 142.512 84.522 143.485C87.1329 144.893 92.3019 143.993 97.936 138.818L136.159 103.725C142.322 98.0628 144.457 91.3531 143.326 87.9242C142.766 86.2203 141.434 85.2044 139.489 85.0033L107.407 81.5955C107.164 81.5744 106.91 81.5532 106.646 81.5532Z" fill="url(#paint3_linear)"/>
<path d="M87.376 149.359C86.3507 149.359 85.3993 149.179 84.5537 148.798C82.207 147.74 81.0548 145.306 81.3085 141.94L84.3846 101.005C85.0928 91.5753 96.1073 80.135 104.416 80.3043L140.26 80.9288C142.871 80.9711 144.721 82.1458 145.62 84.3153C147.47 88.8026 144.679 96.3377 138.981 102.243L100.061 142.554C95.8853 146.882 91.1391 149.359 87.376 149.359ZM104.257 81.0875C96.4984 81.0875 85.8433 92.1997 85.1774 101.047L82.1013 141.983C81.8793 144.999 82.8624 147.147 84.8814 148.057C88.4754 149.676 94.49 147.179 99.5004 141.993L138.421 101.682C144.637 95.2371 146.391 88.2205 144.89 84.6117C144.119 82.7596 142.512 81.7542 140.25 81.7119L104.405 81.0875C104.352 81.0875 104.31 81.0875 104.257 81.0875Z" fill="url(#paint4_linear)"/>
<path d="M88.0208 154.026C87.1118 154.026 86.245 153.889 85.4416 153.592C82.873 152.661 81.4354 150.238 81.3825 146.777L80.8329 103.566C80.706 93.618 91.8051 80.6538 100.959 80.0505L140.694 77.4153L140.715 77.8069L140.694 77.4153C143.622 77.2248 145.873 78.3784 147.026 80.6749C149.351 85.3103 146.994 93.1947 141.296 99.862L102.122 145.708C97.64 150.957 92.3019 154.026 88.0208 154.026ZM141.339 78.1879C141.148 78.1879 140.947 78.1985 140.747 78.2091L101.012 80.8443C92.3759 81.4157 81.5094 94.1578 81.6257 103.566L82.1753 146.777C82.2176 149.931 83.4332 152.037 85.7059 152.862C89.8707 154.375 96.361 151.222 101.509 145.2L140.683 99.3541C146.804 92.1893 148.146 84.7177 146.307 81.0453C145.377 79.1615 143.664 78.1879 141.339 78.1879Z" fill="url(#paint5_linear)"/>
<path d="M89.0567 158.863C88.3062 158.863 87.5874 158.767 86.9003 158.577C84.078 157.794 82.3127 155.413 81.9427 151.867L77.1543 106.603C76.0549 96.1897 87.0589 81.585 97.122 80.114L140.842 73.7006C144.171 73.2138 146.804 74.3039 148.273 76.7697C151.053 81.458 149.14 89.8398 143.643 97.1527L104.712 148.83C100.039 155.021 93.9191 158.863 89.0567 158.863ZM140.905 74.0816L140.958 74.4732L97.2383 80.8865C87.7142 82.2835 76.9006 96.6553 77.9471 106.508L82.7355 151.772C83.0843 155.021 84.5959 157.106 87.1223 157.804C91.9107 159.127 98.8767 155.243 104.077 148.343L143.009 96.6659C148.326 89.607 150.218 81.585 147.596 77.1613C146.296 74.96 143.992 74.0287 140.969 74.4732L140.905 74.0816Z" fill="url(#paint6_linear)"/>
<path d="M90.7269 163.837C90.1455 163.837 89.5852 163.784 89.0356 163.678C85.9278 163.075 83.8032 160.757 83.0632 157.138L73.3806 110.117C71.1502 99.3117 81.911 82.9925 92.8938 80.5161L140.673 69.7743C144.425 68.9276 147.501 69.9224 149.33 72.5682C152.586 77.2989 151.211 86.1463 145.968 94.0836L107.872 151.846C103.052 159.159 96.2447 163.837 90.7269 163.837ZM140.747 70.1553L140.831 70.5469L93.0524 81.2887C82.6404 83.6275 72.0381 99.7032 74.1417 109.948L83.8243 156.968C84.5114 160.302 86.3612 162.344 89.173 162.895C94.6379 163.942 102.048 159.222 107.196 151.412L145.292 93.6391C150.355 85.9558 151.74 77.4788 148.664 73.0127C147.004 70.6103 144.298 69.7531 140.831 70.5363L140.747 70.1553Z" fill="url(#paint7_linear)"/>
<path d="M92.9784 168.906C92.619 168.906 92.2596 168.885 91.9108 168.853C88.4753 168.483 85.949 166.25 84.7862 162.567L69.5224 114.149C67.9685 109.207 69.0679 102.603 72.535 96.0202C76.3827 88.7285 82.3973 83.0983 88.2322 81.3415L140.081 65.6891L140.197 66.0701L140.081 65.6891C144.298 64.4191 147.871 65.2764 150.123 68.1126C153.949 72.9279 153.188 81.9976 148.231 90.6757L111.657 154.756C106.794 163.254 99.2679 168.906 92.9784 168.906ZM143.675 65.9008C142.618 65.9008 141.487 66.0807 140.303 66.4405L88.4542 82.0929C82.8201 83.7967 76.9852 89.2682 73.2326 96.3906C69.9135 102.688 68.8036 109.238 70.2729 113.906L85.5367 162.323C86.6149 165.731 88.8453 167.721 91.9848 168.059C98.1685 168.726 105.97 163.085 110.948 154.354L147.522 90.2736C152.247 81.9976 153.051 73.0867 149.478 68.5994C148.083 66.8215 146.074 65.9008 143.675 65.9008Z" fill="url(#paint8_linear)"/>
<path d="M95.8959 174.007C95.8219 174.007 95.7479 174.007 95.6633 174.007C91.8579 173.933 88.8665 171.827 87.228 168.091L65.643 118.721C63.5289 113.885 63.994 107.111 66.9115 100.148C70.4209 91.7977 76.6469 85.0774 83.1478 82.6116L139.024 61.4348C143.738 59.6463 147.861 60.3342 150.62 63.361C154.996 68.1551 154.911 77.6058 150.408 86.8766L116.117 157.423C111.361 167.234 103.073 174.007 95.8959 174.007ZM139.172 61.8158L139.309 62.1862L83.4438 83.363C77.1332 85.7548 71.0762 92.3057 67.6514 100.465C64.8079 107.228 64.3428 113.768 66.3724 118.404L87.9574 167.774C89.4795 171.255 92.1539 173.139 95.6739 173.213C102.619 173.34 110.726 166.715 115.409 157.085L149.7 86.5379C154.065 77.5635 154.203 68.4726 150.038 63.9113C147.512 61.1385 143.696 60.5247 139.309 62.1862L139.172 61.8158Z" fill="url(#paint9_linear)"/>
<path d="M99.5638 179.097C95.7056 179.097 92.5027 177.193 90.4732 173.668L61.8059 123.875C59.0893 119.155 58.8673 112.244 61.214 104.91C64.2054 95.5441 70.516 87.6915 77.6828 84.4213L137.48 57.0852L137.649 57.445L137.48 57.0852C142.713 54.6934 147.438 55.1485 150.799 58.3658C155.831 63.1916 156.486 72.7376 152.469 82.7068L121.339 159.836C116.995 170.61 108.39 178.515 100.409 179.076C100.124 179.098 99.8387 179.097 99.5638 179.097ZM143.77 56.3761C141.92 56.3761 139.912 56.8524 137.819 57.8154L78.0105 85.1515C71.0446 88.337 64.8925 96.0098 61.9645 105.164C59.6918 112.276 59.8821 118.954 62.493 123.483L91.1603 173.277C93.2004 176.833 96.3821 178.558 100.346 178.283C108.031 177.743 116.36 170.038 120.599 159.54L151.729 82.4105C155.567 72.8963 154.975 63.4668 150.25 58.9478C148.463 57.2334 146.254 56.3761 143.77 56.3761Z" fill="url(#paint10_linear)"/>
<path d="M104.056 184.103C100.262 184.103 96.9635 182.41 94.6063 179.214L58.0534 129.643C54.6708 125.05 53.7195 118.012 55.453 110.307C57.7363 100.158 64.1526 90.9403 71.7951 86.8341L135.335 52.6719C141.011 49.624 146.56 49.7827 150.556 53.127C156.222 57.8576 157.702 67.6787 154.33 78.1453L127.333 161.889C123.601 173.446 114.933 182.516 106.255 183.934C105.504 184.05 104.765 184.103 104.056 184.103ZM135.525 53.0211L135.715 53.3704L72.1756 87.5325C64.7234 91.5435 58.455 100.55 56.2247 110.487C54.544 117.959 55.4424 124.774 58.6876 129.177L95.2405 178.748C97.8937 182.357 101.667 183.87 106.128 183.14C114.532 181.764 122.946 172.927 126.582 161.635L153.579 77.8914C156.856 67.7316 155.471 58.2492 150.049 53.7196C146.254 50.5553 141.169 50.4283 135.715 53.3598L135.525 53.0211Z" fill="url(#paint11_linear)"/>
<path d="M109.394 188.95C105.695 188.95 102.344 187.49 99.7118 184.654L54.4699 136.024C50.3474 131.59 48.6033 124.404 49.6815 116.319C51.1402 105.344 57.3662 94.9726 65.5373 89.8927L132.565 48.2377L132.776 48.5764L132.565 48.2377C138.759 44.3855 145.07 44.1632 149.869 47.6451C156.211 52.2381 158.611 62.2709 155.979 73.1926L134.193 163.487C131.244 175.732 122.671 185.987 113.358 188.432C111.995 188.77 110.673 188.95 109.394 188.95ZM132.967 48.8939L65.939 90.5594C57.9688 95.5123 51.8801 105.661 50.4531 116.414C49.4066 124.277 51.0768 131.22 55.0407 135.474L100.283 184.103C103.612 187.691 108.179 188.94 113.136 187.638C122.185 185.267 130.514 175.245 133.4 163.276L155.186 72.9809C157.744 62.3661 155.471 52.6614 149.383 48.2589C144.859 44.9993 138.876 45.2215 132.967 48.8939Z" fill="url(#paint12_linear)"/>
<path d="M115.642 193.543C112.058 193.543 108.718 192.305 105.874 189.882L51.0874 143.041C46.1298 138.797 43.4977 131.474 43.8783 122.933C44.4068 111.249 50.284 99.7561 58.8673 93.6603L129.034 43.814L129.267 44.1421L129.034 43.814C135.747 39.0516 142.871 38.3637 148.59 41.9196C155.778 46.3857 159.108 56.3126 157.279 67.8164L141.899 164.503C139.827 177.499 131.751 188.707 121.783 192.379C119.69 193.162 117.629 193.543 115.642 193.543ZM140.725 40.4697C137.079 40.4697 133.22 41.8138 129.489 44.4595L59.3218 94.3058C50.9288 100.264 45.1784 111.514 44.6711 122.965C44.3011 131.251 46.8274 138.353 51.6053 142.427L106.392 189.268C110.578 192.845 115.948 193.692 121.508 191.638C131.212 188.061 139.098 177.108 141.117 164.376L156.497 67.6894C158.273 56.5031 155.091 46.8831 148.178 42.5863C145.884 41.1788 143.358 40.4697 140.725 40.4697Z" fill="url(#paint13_linear)"/>
<path d="M122.851 197.798C119.436 197.798 116.16 196.792 113.21 194.803L48.0325 150.703C42.113 146.692 38.4979 139.22 38.1173 130.182C37.61 117.917 43.0009 105.376 51.8696 98.2322L124.711 39.5173C131.889 33.7283 139.901 32.4583 146.687 36.0248C154.689 40.2369 159.108 50.2167 158.22 62.091L150.556 164.884C149.552 178.283 141.973 190.644 131.677 195.639C128.717 197.078 125.736 197.798 122.851 197.798ZM124.965 39.8347L125.219 40.1417L52.3664 98.8566C43.688 105.852 38.4027 118.139 38.9101 130.161C39.2801 138.945 42.7684 146.195 48.4765 150.057L113.654 194.147C118.855 197.66 125.134 197.946 131.339 194.94C141.381 190.072 148.791 177.976 149.774 164.842L157.438 62.0486C158.294 50.5025 154.044 40.8084 146.328 36.7445C139.838 33.3262 132.142 34.575 125.219 40.1522L124.965 39.8347Z" fill="url(#paint14_linear)"/>
<path d="M131.075 201.607C127.882 201.607 124.753 200.835 121.794 199.279L45.3898 159.032C38.3604 155.328 33.6248 147.697 32.3987 138.098C30.7814 125.399 35.5592 111.895 44.5759 103.682L119.521 35.432C127.121 28.5107 136.053 26.5317 144.045 30.0135C152.934 33.8763 158.547 43.835 158.717 56.0161L160.175 164.514C160.366 178.367 153.664 191.511 143.114 197.988C139.161 200.39 135.07 201.607 131.075 201.607ZM119.785 35.7072L120.05 36.0035L45.1044 104.254C36.278 112.297 31.5953 125.536 33.1809 137.982C34.3753 147.327 38.9524 154.735 45.7598 158.312L122.164 198.56C128.559 201.936 135.852 201.481 142.692 197.279C153.008 190.95 159.562 178.081 159.382 164.493L157.924 55.9949C157.765 44.1313 152.332 34.4478 143.728 30.712C136.043 27.3677 127.417 29.2938 120.06 35.9929L119.785 35.7072Z" fill="url(#paint15_linear)"/>
<path d="M140.229 204.814C137.343 204.814 134.478 204.275 131.719 203.174L43.2546 167.985C34.9462 164.683 28.921 156.905 26.7434 146.66C23.9317 133.463 27.8639 119.43 37.018 110.032L113.38 31.5693C121.191 23.5473 131.339 20.6581 140.525 23.833C150.535 27.3043 157.321 36.9137 158.664 49.5393L170.767 163.18C172.247 177.108 166.496 191.226 156.095 199.131C151.169 202.888 145.673 204.814 140.229 204.814ZM113.654 31.855L113.94 32.1302L37.5888 110.593C28.625 119.8 24.7668 133.558 27.5257 146.501C29.6503 156.481 35.4958 164.048 43.5506 167.244L132.015 202.433C139.711 205.492 148.315 204.063 155.609 198.517C165.788 190.781 171.433 176.949 169.974 163.286L157.871 49.6452C156.56 37.3264 149.975 27.971 140.26 24.6056C131.371 21.5259 121.529 24.341 113.94 32.1407L113.654 31.855Z" fill="url(#paint16_linear)"/>
<path d="M150.472 207.386C148.009 207.386 145.535 207.047 143.093 206.349L41.7642 177.584C31.9758 174.801 24.4813 166.927 21.2045 155.963C17.2088 142.607 20.2954 127.833 29.2804 117.409L106.213 28.1192C114.236 18.8167 125.366 14.9009 135.99 17.6631C147.11 20.5523 155.334 29.9501 157.987 42.7979L182.384 160.852C185.291 174.917 180.798 189.522 170.661 198.951C164.731 204.486 157.649 207.386 150.472 207.386ZM106.509 28.3838L106.805 28.6378L29.8723 117.927C21.0671 128.14 18.0333 142.628 21.9655 155.73C25.1684 166.429 32.4621 174.113 41.9861 176.811L143.305 205.576C152.596 208.211 162.374 205.587 170.112 198.38C180.048 189.13 184.445 174.811 181.591 161.021L157.205 42.9778C154.615 30.4263 146.603 21.2613 135.789 18.4462C125.462 15.7581 114.627 19.5786 106.805 28.6483L106.509 28.3838Z" fill="url(#paint17_linear)"/>
<path d="M161.697 209.164C159.805 209.164 157.881 208.995 155.968 208.645L41.0348 187.775C29.5658 185.691 20.3694 177.764 15.8135 166.017C10.6234 152.629 12.7692 137.241 21.4159 125.854L97.936 25.1559L98.2531 25.3993L97.936 25.1559C106.022 14.5199 118.105 9.42946 130.271 11.5461C142.628 13.6944 152.459 22.7641 156.581 35.7919L194.995 157.349C199.371 171.192 196.21 186.484 186.739 197.247C179.942 204.994 171.042 209.164 161.697 209.164ZM124.838 11.8742C114.828 11.8742 105.283 16.7953 98.5597 25.6427L22.0396 126.341C13.5514 137.506 11.4479 152.608 16.5429 165.731C21.0037 177.214 29.9781 184.971 41.1722 187.003L156.106 207.862C167.205 209.873 178.156 205.82 186.147 196.739C195.428 186.177 198.536 171.181 194.234 157.603L155.82 36.0353C151.793 23.2827 142.184 14.4247 130.123 12.3292C128.358 12.0223 126.593 11.8742 124.838 11.8742Z" fill="url(#paint18_linear)"/>
<path d="M173.663 210C172.596 210 171.517 209.958 170.439 209.862L41.2039 198.538C28.0119 197.385 16.5852 189.289 10.634 176.875C4.15423 163.381 5.243 147.888 13.5409 135.421L88.4965 22.8065L88.8242 23.0287L88.4965 22.8065C96.4667 10.8264 109.426 4.40248 123.178 5.60896C136.931 6.81543 148.579 15.3983 154.351 28.5742L208.631 152.513C214.635 166.228 213.017 181.68 204.307 193.84C196.95 204.105 185.671 210 173.663 210ZM119.912 6.25452C107.661 6.25452 96.3398 12.4456 89.1519 23.2509L14.1962 135.865C6.05693 148.089 4.9893 163.297 11.3422 176.536C17.1771 188.686 28.3608 196.623 41.2674 197.745L170.503 209.069C183.409 210.201 195.809 204.338 203.652 193.384C212.203 181.457 213.789 166.292 207.901 152.841L153.622 28.8917C147.966 15.9804 136.561 7.56682 123.104 6.3921C122.037 6.29686 120.969 6.25452 119.912 6.25452Z" fill="url(#paint19_linear)"/>
<path d="M186.569 209.799H42.4296C27.1129 209.799 13.4029 201.872 5.74981 188.59C-1.90326 175.309 -1.90326 159.455 5.74981 146.184L77.8091 21.2085C85.4728 7.92673 99.1827 0 114.499 0C129.816 0 143.526 7.92673 151.179 21.2085L223.249 146.184C230.902 159.466 230.902 175.319 223.249 188.59C215.596 201.872 201.886 209.799 186.569 209.799ZM78.158 21.399L78.4962 21.6001L6.42632 146.586C-1.08933 159.614 -1.08933 175.171 6.42632 188.199C13.942 201.227 27.3983 209.005 42.4296 209.005H186.569C201.601 209.005 215.057 201.227 222.562 188.199C230.078 175.171 230.078 159.614 222.562 146.586L150.492 21.6001C142.987 8.57229 129.531 0.793731 114.499 0.793731C99.4681 0.793731 86.0119 8.57229 78.4962 21.6001L78.158 21.399Z" fill="url(#paint20_linear)"/>
</g>
<g opacity="0.3" clip-path="url(#clip0)">
<path d="M314.355 84.804C315.365 84.804 316.236 85.0645 316.876 85.6007C318.04 86.5735 318.233 88.3047 317.392 90.3576L308.343 112.587C307.101 115.628 303.833 118.746 300.387 120.171C298.429 120.975 296.649 121.128 295.369 120.584L279.443 113.905C278.356 113.445 277.724 112.564 277.631 111.354C277.4 108.52 280.129 104.575 283.968 102.185L308.944 86.6348C310.879 85.4321 312.79 84.804 314.355 84.804ZM297.111 120.332C298.013 120.332 299.054 120.102 300.171 119.642C303.486 118.279 306.623 115.291 307.811 112.373L316.861 90.1431C317.608 88.3124 317.477 86.8569 316.506 86.045C315.072 84.85 312.228 85.2789 309.252 87.125L284.276 102.675C280.09 105.28 278.024 109.071 278.209 111.316C278.287 112.312 278.78 113.009 279.674 113.376L295.6 120.056C296.032 120.24 296.541 120.332 297.111 120.332Z" fill="url(#paint21_linear)"/>
<path d="M314.91 82.0923C315.866 82.0923 316.699 82.3221 317.346 82.797C318.649 83.7392 318.973 85.4627 318.264 87.6459L310.408 111.783C308.597 117.367 301.127 122.63 296.872 121.343L278.595 115.789C277.338 115.406 276.56 114.525 276.344 113.238C275.858 110.289 278.495 105.938 282.465 103.112L308.597 84.5282C310.848 82.9272 313.099 82.0923 314.91 82.0923ZM298.298 120.96C302.345 120.96 308.327 116.31 309.861 111.599L317.716 87.4697C318.341 85.5393 318.094 84.0456 317.015 83.2566C315.35 82.0463 312.104 82.7434 308.944 84.9878L282.812 103.571C278.472 106.658 276.537 110.802 276.922 113.139C277.099 114.211 277.716 114.916 278.765 115.23L297.042 120.784C297.435 120.906 297.859 120.96 298.298 120.96Z" fill="url(#paint22_linear)"/>
<path d="M315.303 79.2044C316.19 79.2044 316.976 79.396 317.616 79.8019C319.042 80.6982 319.52 82.4447 318.965 84.7197L312.629 110.741C311.164 116.747 303.44 122.944 298.622 121.986L277.847 117.827C276.398 117.536 275.45 116.662 275.111 115.291C274.347 112.197 276.783 107.532 280.915 104.199L308.034 82.3374C310.547 80.3075 313.199 79.2044 315.303 79.2044ZM299.67 121.511C304.188 121.511 310.786 115.881 312.066 110.611L318.402 84.5895C318.896 82.5672 318.503 81.0429 317.308 80.2922C315.674 79.2657 312.289 79.6411 308.397 82.7817L281.285 104.651C276.837 108.236 275.072 112.741 275.673 115.161C275.959 116.302 276.745 117.03 277.963 117.275L298.738 121.435C299.038 121.488 299.347 121.511 299.67 121.511Z" fill="url(#paint23_linear)"/>
<path d="M315.427 76.1328C316.244 76.1328 316.992 76.2937 317.631 76.6384C319.189 77.4733 319.844 79.2352 319.466 81.5945L314.987 109.462C313.954 115.889 306.03 123.082 300.611 122.515L277.215 120.048C275.55 119.872 274.417 119.007 273.931 117.543C272.875 114.365 275.141 109.301 279.312 105.502L307.186 80.1008C309.977 77.5499 313.022 76.1328 315.427 76.1328ZM301.228 121.971C306.277 121.971 313.477 115.207 314.417 109.37L318.896 81.5026C319.235 79.396 318.688 77.8487 317.362 77.1439C315.458 76.1251 311.688 76.7763 307.579 80.5221L279.705 105.923C275.211 110.021 273.654 114.878 274.479 117.36C274.887 118.593 275.858 119.328 277.277 119.474L300.672 121.94C300.85 121.956 301.035 121.971 301.228 121.971Z" fill="url(#paint24_linear)"/>
<path d="M315.28 72.8925C316.028 72.8925 316.722 73.0227 317.339 73.2985C319.05 74.0645 319.89 75.8264 319.705 78.2623L317.462 107.892C316.945 114.717 308.913 122.997 302.854 122.875L276.714 122.423C274.81 122.392 273.461 121.542 272.806 119.972C271.457 116.724 273.492 111.27 277.647 106.995L306.03 77.818C309.075 74.685 312.536 72.8925 315.28 72.8925ZM302.97 122.308C308.628 122.308 316.398 114.265 316.884 107.861L319.127 78.2316C319.289 76.0485 318.572 74.4935 317.1 73.8347C314.479 72.6627 310.092 74.4705 306.439 78.224L278.055 107.401C273.523 112.066 272.243 117.145 273.338 119.757C273.9 121.098 275.072 121.825 276.722 121.856L302.862 122.308C302.9 122.308 302.931 122.308 302.97 122.308Z" fill="url(#paint25_linear)"/>
<path d="M314.81 69.5146C315.473 69.5146 316.105 69.6141 316.691 69.8286C318.564 70.5027 319.613 72.2569 319.651 74.7618L320.052 106.038C320.144 113.239 312.05 122.622 305.375 123.059L276.398 124.966L276.382 124.683L276.398 124.966C274.263 125.104 272.621 124.269 271.78 122.607C270.085 119.252 271.804 113.545 275.959 108.719L304.527 75.5354C307.795 71.736 311.688 69.5146 314.81 69.5146ZM275.928 124.407C276.066 124.407 276.213 124.399 276.359 124.392L305.336 122.484C311.634 122.071 319.559 112.848 319.474 106.038L319.073 74.7618C319.042 72.479 318.156 70.9547 316.498 70.3572C313.461 69.2618 308.728 71.5445 304.974 75.9031L276.406 109.087C271.942 114.273 270.963 119.681 272.305 122.339C272.983 123.702 274.232 124.407 275.928 124.407Z" fill="url(#paint26_linear)"/>
<path d="M314.055 66.0139C314.602 66.0139 315.126 66.0828 315.627 66.2207C317.685 66.7875 318.973 68.5111 319.243 71.0772L322.735 103.84C323.536 111.377 315.512 121.948 308.173 123.013L276.29 127.655C273.862 128.007 271.942 127.218 270.871 125.433C268.844 122.04 270.239 115.973 274.247 110.68L302.638 73.2757C306.045 68.7945 310.509 66.0139 314.055 66.0139ZM276.244 127.379L276.205 127.096L308.088 122.454C315.034 121.443 322.92 111.04 322.156 103.909L318.664 71.1461C318.41 68.7945 317.308 67.2854 315.465 66.7799C311.973 65.8223 306.893 68.6336 303.101 73.628L274.71 111.032C270.832 116.142 269.452 121.948 271.364 125.15C272.312 126.743 273.993 127.417 276.198 127.096L276.244 127.379Z" fill="url(#paint27_linear)"/>
<path d="M312.837 62.4134C313.261 62.4134 313.669 62.4517 314.07 62.5283C316.336 62.965 317.886 64.6425 318.425 67.2623L325.487 101.296C327.113 109.117 319.266 120.929 311.256 122.722L276.413 130.497C273.677 131.11 271.434 130.389 270.1 128.474C267.726 125.05 268.728 118.646 272.551 112.901L300.333 71.0924C303.848 65.7992 308.813 62.4134 312.837 62.4134ZM276.359 130.221L276.298 129.938L311.141 122.162C318.734 120.47 326.466 108.834 324.932 101.419L317.87 67.3849C317.369 64.9719 316.02 63.4935 313.97 63.0952C309.984 62.3368 304.581 65.7532 300.827 71.4064L273.045 113.223C269.352 118.784 268.342 124.92 270.586 128.153C271.796 129.892 273.769 130.512 276.298 129.945L276.359 130.221Z" fill="url(#paint28_linear)"/>
<path d="M311.195 58.7442C311.457 58.7442 311.719 58.7595 311.973 58.7825C314.479 59.0506 316.321 60.6669 317.169 63.3326L328.3 98.3777C329.433 101.955 328.632 106.735 326.103 111.499C323.297 116.777 318.911 120.853 314.656 122.124L276.845 133.453L276.76 133.178L276.845 133.453C273.769 134.373 271.164 133.752 269.522 131.699C266.731 128.214 267.286 121.649 270.902 115.368L297.574 68.9858C301.12 62.8347 306.608 58.7442 311.195 58.7442ZM274.224 133.3C274.995 133.3 275.82 133.17 276.683 132.91L314.494 121.58C318.603 120.347 322.858 116.387 325.595 111.231C328.015 106.674 328.824 101.932 327.753 98.5539L316.622 63.5088C315.835 61.0422 314.209 59.6021 311.919 59.357C307.41 58.8744 301.721 62.9572 298.09 69.2768L271.418 115.659C267.972 121.649 267.387 128.099 269.992 131.347C271.01 132.634 272.474 133.3 274.224 133.3Z" fill="url(#paint29_linear)"/>
<path d="M309.067 55.0522C309.121 55.0522 309.175 55.0522 309.237 55.0522C312.012 55.1058 314.193 56.6302 315.388 59.3342L331.129 95.0687C332.671 98.5694 332.332 103.472 330.204 108.512C327.645 114.556 323.105 119.42 318.364 121.205L277.616 136.533C274.178 137.828 271.171 137.33 269.159 135.139C265.968 131.669 266.03 124.828 269.314 118.118L294.32 67.0556C297.789 59.9547 303.833 55.0522 309.067 55.0522ZM277.508 136.257L277.408 135.989L318.148 120.661C322.75 118.93 327.167 114.188 329.665 108.282C331.738 103.388 332.077 98.6537 330.597 95.2985L314.856 59.564C313.746 57.0438 311.796 55.6803 309.229 55.6267C304.164 55.5348 298.252 60.33 294.837 67.3008L269.83 118.363C266.646 124.859 266.546 131.439 269.583 134.741C271.426 136.748 274.209 137.192 277.408 135.989L277.508 136.257Z" fill="url(#paint30_linear)"/>
<path d="M306.392 51.3675C309.206 51.3675 311.542 52.7463 313.022 55.2972L333.928 91.3381C335.909 94.7545 336.071 99.7566 334.359 105.065C332.178 111.844 327.576 117.528 322.349 119.895L278.741 139.681L278.618 139.421L278.741 139.681C274.926 141.412 271.48 141.083 269.028 138.754C265.359 135.261 264.881 128.352 267.811 121.136L290.512 65.309C293.681 57.5109 299.956 51.7888 305.776 51.3828C305.984 51.3675 306.192 51.3675 306.392 51.3675ZM274.155 140.194C275.504 140.194 276.968 139.85 278.495 139.153L322.11 119.367C327.19 117.061 331.677 111.507 333.812 104.881C335.469 99.7336 335.331 94.9001 333.426 91.6215L312.521 55.5806C311.033 53.0068 308.713 51.7582 305.822 51.9573C300.218 52.348 294.143 57.9246 291.052 65.5234L268.35 121.35C265.552 128.237 265.984 135.062 269.429 138.333C270.732 139.574 272.343 140.194 274.155 140.194Z" fill="url(#paint31_linear)"/>
<path d="M303.116 47.7444C305.884 47.7444 308.289 48.9701 310.008 51.2834L336.664 87.1635C339.131 90.488 339.825 95.582 338.561 101.159C336.895 108.505 332.216 115.177 326.643 118.149L280.306 142.876C276.167 145.082 272.12 144.967 269.206 142.546C265.074 139.122 263.995 132.014 266.454 124.438L286.142 63.823C288.863 55.4582 295.184 48.8934 301.513 47.867C302.06 47.7827 302.6 47.7444 303.116 47.7444ZM280.168 142.623L280.029 142.37L326.365 117.643C331.8 114.74 336.371 108.221 337.998 101.028C339.223 95.6203 338.568 90.6871 336.202 87.5005L309.545 51.6205C307.61 49.0084 304.858 47.913 301.605 48.4415C295.477 49.4373 289.341 55.8335 286.689 64.0069L267.001 124.622C264.612 131.975 265.621 138.839 269.576 142.117C272.343 144.408 276.051 144.5 280.029 142.378L280.168 142.623Z" fill="url(#paint32_linear)"/>
<path d="M299.223 44.236C301.921 44.236 304.365 45.2931 306.284 47.346L339.277 82.5443C342.284 85.7539 343.556 90.9551 342.769 96.8075C341.706 104.751 337.165 112.258 331.206 115.935L282.326 146.085L282.172 145.84L282.326 146.085C277.809 148.873 273.207 149.034 269.707 146.514C265.082 143.19 263.332 135.928 265.251 128.022L281.139 62.6663C283.289 53.8035 289.541 46.3808 296.333 44.6113C297.327 44.3662 298.29 44.236 299.223 44.236ZM282.033 145.61L330.913 115.452C336.726 111.867 341.166 104.521 342.207 96.7385C342.97 91.047 341.752 86.022 338.861 82.9426L305.868 47.7443C303.44 45.1475 300.11 44.2436 296.494 45.1858C289.896 46.9017 283.821 54.1558 281.717 62.8195L265.829 128.176C263.964 135.859 265.621 142.883 270.061 146.07C273.361 148.429 277.724 148.268 282.033 145.61Z" fill="url(#paint33_linear)"/>
<path d="M294.667 40.9116C297.281 40.9116 299.717 41.8078 301.79 43.562L341.744 77.4658C345.359 80.5375 347.279 85.8383 347.001 92.02C346.616 100.477 342.33 108.796 336.071 113.208L284.901 149.287L284.731 149.05L284.901 149.287C280.006 152.734 274.81 153.232 270.64 150.658C265.398 147.426 262.97 140.241 264.303 131.914L275.519 61.931C277.03 52.5244 282.919 44.4123 290.189 41.7542C291.715 41.1874 293.218 40.9116 294.667 40.9116ZM276.375 151.708C279.034 151.708 281.848 150.735 284.569 148.82L335.739 112.741C341.86 108.428 346.053 100.285 346.423 91.997C346.693 85.9992 344.851 80.8592 341.366 77.91L301.413 44.0063C298.36 41.4172 294.444 40.8044 290.389 42.2904C283.313 44.8795 277.562 52.8078 276.09 62.0229L264.874 132.006C263.578 140.103 265.899 147.066 270.94 150.176C272.613 151.195 274.455 151.708 276.375 151.708Z" fill="url(#paint34_linear)"/>
<path d="M289.41 37.832C291.9 37.832 294.29 38.5597 296.44 39.9999L343.972 71.9196C348.289 74.8228 350.925 80.2309 351.203 86.7726C351.573 95.6507 347.641 104.728 341.174 109.899L288.053 152.397C282.819 156.587 276.976 157.506 272.027 154.925C266.192 151.876 262.969 144.653 263.617 136.058L269.206 61.655C269.938 51.9573 275.465 43.0103 282.973 39.3947C285.132 38.3529 287.306 37.832 289.41 37.832ZM287.868 152.167L287.683 151.945L340.811 109.447C347.14 104.383 350.994 95.4899 350.624 86.7879C350.355 80.43 347.811 75.1828 343.648 72.3869L296.117 40.4748C292.324 37.9316 287.745 37.7248 283.22 39.9003C275.897 43.4239 270.493 52.1795 269.776 61.6857L264.187 136.089C263.563 144.446 266.662 151.462 272.289 154.404C277.022 156.878 282.634 155.974 287.683 151.937L287.868 152.167Z" fill="url(#paint35_linear)"/>
<path d="M283.413 35.0744C285.741 35.0744 288.023 35.6336 290.181 36.7597L345.899 65.8912C351.025 68.5722 354.479 74.0952 355.373 81.0429C356.552 90.235 353.068 100.009 346.493 105.954L291.838 155.354C286.296 160.364 279.782 161.796 273.954 159.276C267.471 156.48 263.378 149.272 263.255 140.455L262.191 61.9232C262.052 51.8961 266.939 42.3822 274.633 37.6942C277.516 35.9553 280.499 35.0744 283.413 35.0744ZM291.646 155.155L291.453 154.94L346.107 105.54C352.544 99.7183 355.959 90.1355 354.803 81.1272C353.931 74.3633 350.594 69.0012 345.629 66.412L289.911 37.2806C285.247 34.837 279.929 35.1664 274.941 38.2074C267.417 42.7882 262.638 52.1029 262.769 61.9385L263.833 140.47C263.948 149.057 267.911 156.066 274.186 158.77C279.79 161.191 286.08 159.797 291.445 154.948L291.646 155.155Z" fill="url(#paint36_linear)"/>
<path d="M276.737 32.7535C278.842 32.7535 280.931 33.1442 282.943 33.9409L347.456 59.4108C353.515 61.8008 357.909 67.431 359.497 74.846C361.548 84.3982 358.68 94.5555 352.004 101.358L296.317 158.15C290.62 163.956 283.22 166.047 276.521 163.749C269.221 161.237 264.272 154.282 263.293 145.143L254.467 62.8885C253.388 52.8078 257.581 42.5891 265.166 36.867C268.759 34.1477 272.767 32.7535 276.737 32.7535ZM296.117 157.943L295.908 157.744L351.588 100.952C358.125 94.2874 360.939 84.3292 358.927 74.9609C357.377 67.7374 353.114 62.2604 347.24 59.947L282.727 34.4771C277.115 32.2633 270.84 33.2974 265.521 37.3113C258.098 42.9109 253.981 52.9227 255.045 62.8119L263.871 145.066C264.827 153.983 269.63 160.754 276.714 163.19C283.197 165.419 290.374 163.382 295.908 157.736L296.117 157.943Z" fill="url(#paint37_linear)"/>
<path d="M269.267 30.8921C271.064 30.8921 272.867 31.1372 274.648 31.6428L348.543 52.463C355.681 54.4776 361.147 60.1767 363.536 68.1126C366.45 77.7797 364.199 88.4733 357.647 96.0185L301.543 160.647C295.693 167.38 287.575 170.215 279.828 168.215C271.719 166.124 265.721 159.322 263.787 150.022L245.995 64.5736C243.875 54.3933 247.151 43.8224 254.544 36.9972C258.868 32.9909 264.033 30.8921 269.267 30.8921ZM301.328 160.456L301.112 160.272L357.215 95.6432C363.637 88.2511 365.849 77.7644 362.981 68.2812C360.646 60.5368 355.327 54.9755 348.381 53.0222L274.494 32.2019C267.718 30.2946 260.587 32.1943 254.945 37.4108C247.699 44.1058 244.492 54.4699 246.573 64.4511L264.357 149.892C266.246 158.977 272.089 165.611 279.975 167.648C287.506 169.594 295.407 166.829 301.112 160.264L301.328 160.456Z" fill="url(#paint38_linear)"/>
<path d="M261.081 29.6051C262.461 29.6051 263.864 29.7277 265.259 29.9805L349.075 45.0863C357.439 46.5953 364.145 52.3327 367.468 60.8355C371.253 70.5256 369.688 81.6634 363.382 89.9057L307.579 162.792L307.348 162.616L307.579 162.792C301.682 170.49 292.871 174.175 283.999 172.643C274.987 171.088 267.818 164.523 264.812 155.093L236.799 67.1091C233.607 57.0897 235.912 46.0208 242.819 38.2304C247.776 32.6232 254.266 29.6051 261.081 29.6051ZM287.961 172.405C295.261 172.405 302.222 168.843 307.125 162.439L362.927 89.5533C369.118 81.4719 370.652 70.5409 366.936 61.0423C363.683 52.7311 357.138 47.1162 348.975 45.6454L265.159 30.5473C257.065 29.0919 249.079 32.0257 243.251 38.5981C236.483 46.2429 234.216 57.0973 237.354 66.9253L265.367 154.917C268.304 164.148 275.311 170.559 284.107 172.076C285.394 172.298 286.681 172.405 287.961 172.405Z" fill="url(#paint39_linear)"/>
<path d="M252.355 29C253.133 29 253.92 29.0306 254.706 29.0996L348.952 37.2959C358.572 38.1309 366.905 43.9909 371.245 52.9762C375.97 62.7429 375.176 73.9573 369.125 82.9809L314.463 164.492L314.224 164.332L314.463 164.492C308.651 173.164 299.2 177.813 289.171 176.94C279.142 176.067 270.647 169.854 266.438 160.318L226.855 70.6098C222.476 60.6823 223.655 49.4985 230.007 40.697C235.373 33.2667 243.598 29 252.355 29ZM291.553 176.473C300.487 176.473 308.743 171.992 313.985 164.171L368.647 82.6592C374.583 73.8118 375.361 62.8042 370.729 53.2213C366.473 44.4275 358.318 38.6824 348.905 37.8704L254.66 29.6741C245.247 28.8545 236.205 33.0982 230.485 41.0264C224.249 49.6594 223.093 60.6363 227.386 70.3724L266.97 160.088C271.094 169.433 279.412 175.523 289.225 176.373C290.004 176.442 290.782 176.473 291.553 176.473Z" fill="url(#paint40_linear)"/>
<path d="M242.943 29.1455L348.058 29.1455C359.228 29.1455 369.226 34.883 374.807 44.4964C380.388 54.1099 380.388 65.5848 374.807 75.1906L322.257 165.649C316.668 175.263 306.67 181 295.5 181C284.331 181 274.332 175.263 268.751 165.649L216.194 75.1906C210.613 65.5771 210.613 54.1022 216.194 44.4964C221.775 34.883 231.773 29.1455 242.943 29.1455ZM322.003 165.511L321.756 165.366L374.314 74.8995C379.794 65.4699 379.794 54.2095 374.314 44.7799C368.833 35.3502 359.02 29.72 348.058 29.72L242.943 29.72C231.981 29.72 222.168 35.3502 216.695 44.7799C211.214 54.2095 211.214 65.4699 216.695 74.8995L269.252 165.366C274.726 174.795 284.539 180.425 295.5 180.425C306.462 180.425 316.275 174.795 321.756 165.366L322.003 165.511Z" fill="url(#paint41_linear)"/>
</g>
<g opacity="0.1" clip-path="url(#clip1)">
<path d="M416.354 122.906C415.49 122.906 414.744 122.681 414.196 122.219C413.199 121.381 413.034 119.889 413.754 118.119L421.503 98.961C422.566 96.3401 425.365 93.6531 428.315 92.4252C429.992 91.732 431.517 91.5999 432.612 92.0687L446.25 97.8255C447.18 98.2216 447.721 98.9808 447.801 100.024C447.999 102.467 445.662 105.866 442.375 107.926L420.988 121.328C419.331 122.364 417.694 122.906 416.354 122.906ZM431.12 92.2865C430.348 92.2865 429.457 92.4846 428.5 92.8807C425.662 94.0558 422.975 96.6305 421.959 99.1458L414.209 118.304C413.569 119.882 413.681 121.136 414.513 121.836C415.741 122.866 418.176 122.496 420.724 120.905L442.111 107.504C445.695 105.259 447.464 101.991 447.306 100.057C447.24 99.1986 446.817 98.5979 446.051 98.281L432.414 92.5242C432.045 92.3658 431.609 92.2865 431.12 92.2865Z" fill="url(#paint42_linear)"/>
<path d="M415.879 125.243C415.061 125.243 414.348 125.045 413.793 124.635C412.678 123.823 412.401 122.338 413.008 120.456L419.734 99.6541C421.285 94.8414 427.681 90.3059 431.325 91.415L446.976 96.2013C448.052 96.5314 448.718 97.2906 448.903 98.3998C449.319 100.941 447.061 104.691 443.662 107.127L421.285 123.143C419.358 124.523 417.43 125.243 415.879 125.243ZM430.104 91.7451C426.639 91.7451 421.516 95.7524 420.203 99.8125L413.476 120.608C412.942 122.272 413.153 123.559 414.077 124.239C415.503 125.282 418.282 124.682 420.988 122.747L443.365 106.731C447.081 104.071 448.738 100.499 448.408 98.4856C448.256 97.5613 447.728 96.954 446.83 96.6833L431.18 91.897C430.843 91.7913 430.48 91.7451 430.104 91.7451Z" fill="url(#paint43_linear)"/>
<path d="M415.542 127.732C414.783 127.732 414.11 127.567 413.562 127.217C412.341 126.444 411.932 124.939 412.407 122.978L417.833 100.552C419.087 95.3761 425.701 90.0352 429.827 90.8605L447.616 94.4453C448.857 94.6961 449.669 95.4487 449.959 96.6305C450.613 99.2976 448.527 103.318 444.989 106.19L421.767 125.032C419.615 126.781 417.344 127.732 415.542 127.732ZM428.929 91.2698C425.061 91.2698 419.411 96.1221 418.315 100.664L412.889 123.091C412.466 124.833 412.803 126.147 413.826 126.794C415.226 127.679 418.123 127.355 421.457 124.649L444.672 105.8C448.481 102.711 449.992 98.8289 449.477 96.7427C449.233 95.759 448.56 95.1319 447.517 94.9206L429.728 91.3358C429.47 91.2896 429.206 91.2698 428.929 91.2698Z" fill="url(#paint44_linear)"/>
<path d="M415.437 130.379C414.737 130.379 414.097 130.24 413.549 129.943C412.216 129.224 411.655 127.705 411.978 125.672L415.813 101.655C416.698 96.1156 423.483 89.9165 428.124 90.4051L448.157 92.5309C449.583 92.6827 450.553 93.4287 450.969 94.6896C451.873 97.4294 449.933 101.793 446.362 105.068L422.493 126.959C420.104 129.158 417.496 130.379 415.437 130.379ZM427.596 90.8738C423.272 90.8738 417.107 96.7032 416.302 101.734L412.467 125.751C412.176 127.567 412.645 128.9 413.78 129.508C415.41 130.386 418.638 129.825 422.157 126.596L446.025 104.705C449.873 101.173 451.207 96.9871 450.5 94.8481C450.151 93.7852 449.319 93.1514 448.104 93.026L428.071 90.9002C427.919 90.887 427.761 90.8738 427.596 90.8738Z" fill="url(#paint45_linear)"/>
<path d="M415.562 133.172C414.922 133.172 414.328 133.059 413.8 132.822C412.335 132.161 411.615 130.643 411.773 128.544L413.694 103.008C414.137 97.1256 421.015 89.989 426.203 90.0947L448.586 90.4842C450.217 90.5106 451.372 91.2434 451.933 92.5968C453.088 95.3959 451.345 100.096 447.788 103.78L423.483 128.927C420.876 131.627 417.912 133.172 415.562 133.172ZM426.104 90.5832C421.259 90.5832 414.605 97.5151 414.189 103.034L412.269 128.57C412.13 130.452 412.744 131.792 414.005 132.36C416.249 133.37 420.005 131.812 423.133 128.577L447.438 103.43C451.319 99.4098 452.415 95.0328 451.477 92.7816C450.996 91.6263 449.992 90.9991 448.58 90.9727L426.196 90.5832C426.163 90.5832 426.137 90.5832 426.104 90.5832Z" fill="url(#paint46_linear)"/>
<path d="M415.965 136.083C415.397 136.083 414.856 135.997 414.354 135.812C412.75 135.231 411.853 133.719 411.82 131.561L411.476 104.605C411.397 98.3996 418.328 90.3124 424.044 89.9361L448.857 88.2922L448.87 88.5365L448.857 88.2922C450.685 88.1734 452.091 88.893 452.811 90.3256C454.263 93.2172 452.791 98.1355 449.233 102.295L424.77 130.894C421.972 134.168 418.638 136.083 415.965 136.083ZM449.259 88.7741C449.141 88.7741 449.015 88.7808 448.89 88.7874L424.077 90.4312C418.684 90.7877 411.899 98.7363 411.971 104.605L412.315 131.561C412.341 133.528 413.1 134.842 414.519 135.357C417.12 136.301 421.173 134.333 424.388 130.577L448.85 101.978C452.672 97.5084 453.51 92.8475 452.362 90.5566C451.781 89.3815 450.712 88.7741 449.259 88.7741Z" fill="url(#paint47_linear)"/>
<path d="M416.612 139.1C416.143 139.1 415.694 139.041 415.265 138.922C413.503 138.433 412.4 136.948 412.169 134.736L409.179 106.5C408.493 100.004 415.364 90.8934 421.648 89.9758L448.949 85.9751C451.028 85.6714 452.672 86.3514 453.59 87.8896C455.326 90.8142 454.131 96.0429 450.698 100.605L426.388 132.841C423.47 136.704 419.648 139.1 416.612 139.1ZM448.989 86.2127L449.022 86.457L421.721 90.4577C415.773 91.3292 409.021 100.294 409.674 106.441L412.664 134.677C412.882 136.704 413.826 138.004 415.404 138.44C418.394 139.265 422.744 136.842 425.992 132.538L450.302 100.301C453.623 95.8976 454.804 90.8934 453.167 88.1339C452.355 86.7607 450.916 86.1797 449.028 86.457L448.989 86.2127Z" fill="url(#paint48_linear)"/>
<path d="M417.655 142.203C417.292 142.203 416.942 142.17 416.599 142.104C414.658 141.728 413.331 140.282 412.869 138.024L406.823 108.692C405.43 101.952 412.15 91.7716 419.008 90.2267L448.844 83.5259C451.187 82.9977 453.108 83.6183 454.25 85.2688C456.283 88.2198 455.425 93.7389 452.151 98.6903L428.361 134.723C425.351 139.285 421.1 142.203 417.655 142.203ZM448.89 83.7635L448.943 84.0078L419.107 90.7087C412.605 92.1677 405.984 102.196 407.298 108.586L413.344 137.918C413.773 139.998 414.929 141.272 416.684 141.615C420.097 142.269 424.724 139.325 427.939 134.452L451.728 98.413C454.89 93.6201 455.755 88.332 453.834 85.546C452.797 84.0474 451.108 83.5127 448.943 84.0012L448.89 83.7635Z" fill="url(#paint49_linear)"/>
<path d="M419.061 145.365C418.836 145.365 418.612 145.352 418.394 145.332C416.249 145.101 414.671 143.708 413.945 141.411L404.414 111.207C403.443 108.124 404.13 104.005 406.295 99.8984C408.698 95.3498 412.453 91.8376 416.097 90.7417L448.474 80.9776L448.547 81.2152L448.474 80.9776C451.108 80.1854 453.339 80.7201 454.745 82.4894C457.134 85.4932 456.659 91.151 453.563 96.5645L430.724 136.539C427.688 141.84 422.988 145.365 419.061 145.365ZM450.718 81.1096C450.058 81.1096 449.352 81.2219 448.613 81.4463L416.236 91.2104C412.717 92.2733 409.074 95.6865 406.73 100.129C404.658 104.058 403.965 108.144 404.882 111.055L414.414 141.259C415.087 143.385 416.48 144.626 418.44 144.837C422.302 145.253 427.173 141.734 430.282 136.288L453.121 96.3136C456.072 91.151 456.573 85.5923 454.342 82.7931C453.471 81.684 452.217 81.1096 450.718 81.1096Z" fill="url(#paint50_linear)"/>
<path d="M420.883 148.547C420.836 148.547 420.79 148.547 420.737 148.547C418.361 148.501 416.493 147.187 415.47 144.857L401.991 114.059C400.671 111.042 400.961 106.817 402.783 102.473C404.975 97.2642 408.863 93.072 412.922 91.5338L447.814 78.3235C450.758 77.2078 453.332 77.6369 455.055 79.5251C457.788 82.5157 457.735 88.4111 454.923 94.1943L433.51 138.202C430.54 144.322 425.365 148.547 420.883 148.547ZM447.906 78.5612L447.992 78.7923L413.107 92.0025C409.166 93.4945 405.384 97.5811 403.245 102.671C401.47 106.89 401.179 110.97 402.447 113.861L415.925 144.659C416.876 146.831 418.546 148.006 420.744 148.052C425.081 148.131 430.144 143.998 433.068 137.991L454.481 93.9831C457.207 88.3847 457.293 82.7137 454.692 79.8684C453.114 78.1387 450.731 77.7558 447.992 78.7923L447.906 78.5612Z" fill="url(#paint51_linear)"/>
<path d="M423.173 151.723C420.764 151.723 418.764 150.534 417.496 148.336L399.595 117.274C397.899 114.33 397.76 110.019 399.225 105.444C401.093 99.6014 405.034 94.7028 409.509 92.6629L446.85 75.6103L446.956 75.8348L446.85 75.6103C450.118 74.1183 453.068 74.4022 455.167 76.4092C458.309 79.4196 458.718 85.3744 456.21 91.5934L436.771 139.707C434.058 146.428 428.685 151.36 423.701 151.71C423.523 151.723 423.345 151.723 423.173 151.723ZM450.778 75.168C449.623 75.168 448.368 75.4651 447.061 76.0659L409.714 93.1184C405.364 95.1055 401.522 99.8919 399.694 105.602C398.275 110.039 398.394 114.205 400.024 117.03L417.925 148.092C419.199 150.31 421.186 151.386 423.662 151.214C428.46 150.878 433.662 146.072 436.309 139.523L455.748 91.4085C458.144 85.4735 457.775 79.5912 454.824 76.7723C453.708 75.7028 452.329 75.168 450.778 75.168Z" fill="url(#paint52_linear)"/>
<path d="M425.978 154.845C423.609 154.845 421.549 153.789 420.077 151.795L397.252 120.872C395.139 118.007 394.545 113.617 395.628 108.811C397.054 102.48 401.06 96.7295 405.833 94.168L445.51 72.8573C449.055 70.956 452.52 71.055 455.015 73.1412C458.553 76.0922 459.477 82.2187 457.372 88.7479L440.513 140.988C438.183 148.197 432.771 153.855 427.351 154.74C426.883 154.812 426.421 154.845 425.978 154.845ZM445.629 73.0752L445.748 73.293L406.07 94.6037C401.417 97.1058 397.502 102.724 396.11 108.923C395.06 113.584 395.621 117.836 397.648 120.582L420.473 151.505C422.13 153.756 424.487 154.7 427.272 154.245C432.52 153.386 437.774 147.874 440.045 140.83L456.903 88.5895C458.949 82.2517 458.085 76.3365 454.698 73.5109C452.329 71.5369 449.154 71.4577 445.748 73.2864L445.629 73.0752Z" fill="url(#paint53_linear)"/>
<path d="M429.312 157.869C427.002 157.869 424.909 156.958 423.266 155.189L395.014 124.853C392.44 122.087 391.351 117.604 392.024 112.561C392.935 105.715 396.823 99.2448 401.925 96.0759L443.781 70.0911L443.913 70.3024L443.781 70.0911C447.649 67.688 451.59 67.5494 454.586 69.7214C458.547 72.5866 460.045 78.8451 458.402 85.6582L444.797 141.985C442.956 149.623 437.602 156.02 431.787 157.545C430.936 157.757 430.111 157.869 429.312 157.869ZM444.032 70.5004L402.176 96.4918C397.199 99.5814 393.397 105.913 392.506 112.62C391.852 117.525 392.895 121.856 395.37 124.51L423.622 154.845C425.701 157.083 428.553 157.862 431.649 157.05C437.299 155.572 442.5 149.32 444.302 141.853L457.907 85.5262C459.504 78.9045 458.085 72.8507 454.283 70.1043C451.458 68.0709 447.722 68.2096 444.032 70.5004Z" fill="url(#paint54_linear)"/>
<path d="M433.213 160.734C430.975 160.734 428.889 159.962 427.114 158.45L392.902 129.23C389.806 126.583 388.162 122.015 388.4 116.687C388.73 109.398 392.4 102.229 397.76 98.4262L441.576 67.3316L441.721 67.5363L441.576 67.3316C445.768 64.3608 450.217 63.9317 453.788 66.1499C458.276 68.9359 460.355 75.1284 459.213 82.3046L449.609 142.619C448.316 150.726 443.272 157.717 437.048 160.008C435.741 160.497 434.454 160.734 433.213 160.734ZM448.877 65.2455C446.599 65.2455 444.19 66.0839 441.86 67.7343L398.044 98.8289C392.803 102.546 389.212 109.563 388.895 116.707C388.664 121.876 390.242 126.306 393.225 128.847L427.437 158.067C430.051 160.299 433.404 160.827 436.876 159.546C442.936 157.314 447.86 150.482 449.121 142.54L458.725 82.2253C459.834 75.2472 457.847 69.2462 453.53 66.5658C452.098 65.6878 450.52 65.2455 448.877 65.2455Z" fill="url(#paint55_linear)"/>
<path d="M437.715 163.388C435.583 163.388 433.536 162.761 431.695 161.52L390.994 134.01C387.298 131.508 385.04 126.847 384.803 121.209C384.486 113.557 387.852 105.734 393.39 101.278L438.876 64.6511C443.358 61.0399 448.362 60.2477 452.6 62.4725C457.596 65.1 460.355 71.3256 459.801 78.7328L455.015 142.856C454.388 151.214 449.656 158.925 443.226 162.041C441.378 162.939 439.517 163.388 437.715 163.388ZM439.035 64.8492L439.193 65.0406L393.7 101.668C388.281 106.031 384.981 113.696 385.298 121.196C385.529 126.675 387.707 131.197 391.271 133.607L431.972 161.11C435.22 163.302 439.14 163.48 443.015 161.605C449.286 158.569 453.913 151.023 454.527 142.83L459.313 78.7064C459.847 71.5038 457.194 65.4565 452.375 62.9214C448.322 60.789 443.517 61.5681 439.193 65.0472L439.035 64.8492Z" fill="url(#paint56_linear)"/>
<path d="M442.85 165.765C440.857 165.765 438.903 165.283 437.055 164.312L389.344 139.206C384.954 136.895 381.997 132.135 381.231 126.147C380.222 118.225 383.205 109.801 388.836 104.678L435.635 62.1028C440.381 57.7853 445.959 56.5507 450.949 58.7227C456.501 61.1324 460.006 67.3447 460.111 74.9434L461.022 142.625C461.141 151.267 456.956 159.467 450.368 163.507C447.9 165.005 445.345 165.765 442.85 165.765ZM435.8 62.2745L435.965 62.4593L389.166 105.035C383.654 110.052 380.73 118.311 381.72 126.075C382.466 131.904 385.324 136.525 389.575 138.757L437.286 163.863C441.279 165.969 445.834 165.685 450.104 163.065C456.547 159.117 460.639 151.089 460.527 142.612L459.616 74.9302C459.517 67.5295 456.124 61.4889 450.751 59.1584C445.952 57.0723 440.566 58.2738 435.972 62.4527L435.8 62.2745Z" fill="url(#paint57_linear)"/>
<path d="M448.566 167.765C446.764 167.765 444.976 167.428 443.253 166.742L388.011 144.791C382.822 142.731 379.06 137.879 377.7 131.488C375.944 123.256 378.4 114.502 384.116 108.639L431.8 59.6932C436.678 54.6891 443.015 52.8868 448.751 54.8673C455.002 57.0327 459.24 63.0272 460.078 70.9031L467.636 141.794C468.56 150.482 464.969 159.288 458.474 164.22C455.398 166.564 451.966 167.765 448.566 167.765ZM431.972 59.8715L432.15 60.0431L384.472 108.989C378.875 114.733 376.466 123.315 378.189 131.389C379.515 137.615 383.166 142.335 388.195 144.329L443.438 166.28C448.243 168.188 453.616 167.296 458.171 163.837C464.527 159.011 468.052 150.383 467.141 141.86L459.583 70.9692C458.765 63.2846 454.652 57.4486 448.586 55.3492C443.035 53.4281 436.89 55.1842 432.15 60.0497L431.972 59.8715Z" fill="url(#paint58_linear)"/>
<path d="M454.963 169.369C453.425 169.369 451.88 169.158 450.355 168.722L387.08 150.779C380.967 149.042 376.287 144.131 374.241 137.291C371.746 128.96 373.674 119.743 379.284 113.241L427.325 57.541C432.335 51.738 439.286 49.2954 445.919 51.0184C452.863 52.8207 457.999 58.6832 459.656 66.6978L474.89 140.341C476.706 149.115 473.9 158.225 467.57 164.108C463.867 167.56 459.444 169.369 454.963 169.369ZM427.51 57.7061L427.695 57.8645L379.654 113.564C374.155 119.935 372.261 128.973 374.716 137.146C376.716 143.82 381.271 148.613 387.218 150.297L450.487 168.24C456.289 169.884 462.395 168.247 467.227 163.751C473.432 157.981 476.178 149.049 474.395 140.447L459.167 66.81C457.55 58.9802 452.547 53.2631 445.794 51.507C439.345 49.8301 432.579 52.2134 427.695 57.8711L427.51 57.7061Z" fill="url(#paint59_linear)"/>
<path d="M461.973 170.479C460.791 170.479 459.59 170.373 458.395 170.155L386.624 157.136C379.462 155.836 373.72 150.891 370.875 143.563C367.634 135.212 368.974 125.613 374.373 118.509L422.156 55.6926L422.355 55.8444L422.156 55.6926C427.206 49.0578 434.751 45.8823 442.348 47.2026C450.065 48.5428 456.203 54.2006 458.778 62.3274L482.765 138.156C485.498 146.791 483.524 156.331 477.61 163.045C473.366 167.877 467.808 170.479 461.973 170.479ZM438.956 47.4073C432.705 47.4073 426.744 50.4771 422.546 55.9963L374.763 118.813C369.462 125.778 368.149 135.198 371.33 143.385C374.116 150.548 379.72 155.387 386.71 156.654L458.481 169.667C465.412 170.921 472.25 168.392 477.24 162.728C483.036 156.139 484.976 146.785 482.29 138.314L458.303 62.4793C455.788 54.5241 449.787 48.9983 442.256 47.6912C441.154 47.4997 440.051 47.4073 438.956 47.4073Z" fill="url(#paint60_linear)"/>
<path d="M469.445 171C468.778 171 468.105 170.974 467.432 170.914L386.73 163.85C378.492 163.131 371.357 158.08 367.64 150.336C363.594 141.919 364.274 132.254 369.456 124.477L416.262 54.227L416.467 54.3657L416.262 54.227C421.239 46.7538 429.332 42.7465 437.919 43.4991C446.507 44.2517 453.781 49.6058 457.385 57.825L491.28 135.139C495.03 143.695 494.02 153.334 488.581 160.919C483.986 167.323 476.943 171 469.445 171ZM435.88 43.9018C428.229 43.9018 421.16 47.7639 416.671 54.5043L369.865 124.754C364.782 132.379 364.116 141.866 368.083 150.125C371.726 157.704 378.71 162.655 386.77 163.355L467.471 170.419C475.531 171.126 483.273 167.468 488.171 160.635C493.511 153.195 494.501 143.735 490.825 135.344L456.93 58.0231C453.398 49.9689 446.276 44.7204 437.873 43.9876C437.206 43.9282 436.54 43.9018 435.88 43.9018Z" fill="url(#paint61_linear)"/>
<path d="M477.504 170.875L387.495 170.875C377.931 170.875 369.369 165.93 364.59 157.645C359.811 149.359 359.811 139.47 364.59 131.191L409.588 53.2301C414.374 44.9448 422.935 40 432.5 40C442.064 40 450.625 44.9448 455.404 53.2301L500.409 131.191C505.188 139.476 505.188 149.366 500.409 157.645C495.63 165.93 487.069 170.875 477.504 170.875ZM409.806 53.3489L410.017 53.4743L365.013 131.442C360.32 139.569 360.32 149.273 365.013 157.4C369.706 165.527 378.109 170.379 387.495 170.379L477.504 170.379C486.89 170.379 495.293 165.527 499.98 157.4C504.673 149.273 504.673 139.569 499.98 131.442L454.975 53.4743C450.289 45.3475 441.886 40.4951 432.5 40.4951C423.113 40.4951 414.71 45.3475 410.017 53.4743L409.806 53.3489Z" fill="url(#paint62_linear)"/>
</g>
<defs>
<linearGradient id="paint0_linear" x1="83.7736" y1="107.964" x2="139.023" y2="107.964" gradientUnits="userSpaceOnUse">
<stop stop-color="#3DDEED"/>
<stop offset="0.9966" stop-color="#CB00DD"/>
</linearGradient>
<linearGradient id="paint1_linear" x1="82.7753" y1="109.404" x2="140.831" y2="109.404" gradientUnits="userSpaceOnUse">
<stop stop-color="#3DDEED"/>
<stop offset="0.9966" stop-color="#CB00DD"/>
</linearGradient>
<linearGradient id="paint2_linear" x1="82.0081" y1="111.014" x2="142.645" y2="111.014" gradientUnits="userSpaceOnUse">
<stop stop-color="#3DDEED"/>
<stop offset="0.9966" stop-color="#CB00DD"/>
</linearGradient>
<linearGradient id="paint3_linear" x1="81.4953" y1="112.825" x2="144.436" y2="112.825" gradientUnits="userSpaceOnUse">
<stop stop-color="#3DDEED"/>
<stop offset="0.9966" stop-color="#CB00DD"/>
</linearGradient>
<linearGradient id="paint4_linear" x1="81.2758" y1="114.828" x2="146.187" y2="114.828" gradientUnits="userSpaceOnUse">
<stop stop-color="#3DDEED"/>
<stop offset="0.9966" stop-color="#CB00DD"/>
</linearGradient>
<linearGradient id="paint5_linear" x1="80.8332" y1="115.711" x2="147.909" y2="115.711" gradientUnits="userSpaceOnUse">
<stop stop-color="#3DDEED"/>
<stop offset="0.9966" stop-color="#CB00DD"/>
</linearGradient>
<linearGradient id="paint6_linear" x1="77.0753" y1="116.217" x2="149.535" y2="116.217" gradientUnits="userSpaceOnUse">
<stop stop-color="#3DDEED"/>
<stop offset="0.9966" stop-color="#CB00DD"/>
</linearGradient>
<linearGradient id="paint7_linear" x1="73.0734" y1="116.656" x2="151.067" y2="116.656" gradientUnits="userSpaceOnUse">
<stop stop-color="#3DDEED"/>
<stop offset="0.9966" stop-color="#CB00DD"/>
</linearGradient>
<linearGradient id="paint8_linear" x1="68.8279" y1="117.003" x2="152.542" y2="117.003" gradientUnits="userSpaceOnUse">
<stop stop-color="#3DDEED"/>
<stop offset="0.9966" stop-color="#CB00DD"/>
</linearGradient>
<linearGradient id="paint9_linear" x1="64.3407" y1="117.238" x2="153.852" y2="117.238" gradientUnits="userSpaceOnUse">
<stop stop-color="#3DDEED"/>
<stop offset="0.9966" stop-color="#CB00DD"/>
</linearGradient>
<linearGradient id="paint10_linear" x1="59.6032" y1="117.339" x2="155.083" y2="117.339" gradientUnits="userSpaceOnUse">
<stop stop-color="#3DDEED"/>
<stop offset="0.9966" stop-color="#CB00DD"/>
</linearGradient>
<linearGradient id="paint11_linear" x1="54.6085" y1="117.299" x2="156.121" y2="117.299" gradientUnits="userSpaceOnUse">
<stop stop-color="#3DDEED"/>
<stop offset="0.9966" stop-color="#CB00DD"/>
</linearGradient>
<linearGradient id="paint12_linear" x1="49.3542" y1="117.06" x2="157.013" y2="117.06" gradientUnits="userSpaceOnUse">
<stop stop-color="#3DDEED"/>
<stop offset="0.9966" stop-color="#CB00DD"/>
</linearGradient>
<linearGradient id="paint13_linear" x1="43.8426" y1="116.609" x2="157.771" y2="116.609" gradientUnits="userSpaceOnUse">
<stop stop-color="#3DDEED"/>
<stop offset="0.9966" stop-color="#CB00DD"/>
</linearGradient>
<linearGradient id="paint14_linear" x1="38.0815" y1="115.92" x2="158.331" y2="115.92" gradientUnits="userSpaceOnUse">
<stop stop-color="#3DDEED"/>
<stop offset="0.9966" stop-color="#CB00DD"/>
</linearGradient>
<linearGradient id="paint15_linear" x1="32.0837" y1="114.96" x2="160.167" y2="114.96" gradientUnits="userSpaceOnUse">
<stop stop-color="#3DDEED"/>
<stop offset="0.9966" stop-color="#CB00DD"/>
</linearGradient>
<linearGradient id="paint16_linear" x1="25.8542" y1="113.697" x2="170.995" y2="113.697" gradientUnits="userSpaceOnUse">
<stop stop-color="#3DDEED"/>
<stop offset="0.9966" stop-color="#CB00DD"/>
</linearGradient>
<linearGradient id="paint17_linear" x1="19.4834" y1="112.096" x2="183.244" y2="112.096" gradientUnits="userSpaceOnUse">
<stop stop-color="#3DDEED"/>
<stop offset="0.9966" stop-color="#CB00DD"/>
</linearGradient>
<linearGradient id="paint18_linear" x1="13.0174" y1="110.12" x2="196.934" y2="110.12" gradientUnits="userSpaceOnUse">
<stop stop-color="#3DDEED"/>
<stop offset="0.9966" stop-color="#CB00DD"/>
</linearGradient>
<linearGradient id="paint19_linear" x1="6.4454" y1="107.729" x2="212.214" y2="107.729" gradientUnits="userSpaceOnUse">
<stop stop-color="#3DDEED"/>
<stop offset="0.9966" stop-color="#CB00DD"/>
</linearGradient>
<linearGradient id="paint20_linear" x1="-0.000560766" y1="104.9" x2="228.998" y2="104.9" gradientUnits="userSpaceOnUse">
<stop stop-color="#3DDEED"/>
<stop offset="0.9966" stop-color="#CB00DD"/>
</linearGradient>
<linearGradient id="paint21_linear" x1="317.907" y1="102.855" x2="277.617" y2="102.855" gradientUnits="userSpaceOnUse">
<stop stop-color="#3DDEED"/>
<stop offset="0.9966" stop-color="#CB00DD"/>
</linearGradient>
<linearGradient id="paint22_linear" x1="318.635" y1="101.812" x2="276.298" y2="101.812" gradientUnits="userSpaceOnUse">
<stop stop-color="#3DDEED"/>
<stop offset="0.9966" stop-color="#CB00DD"/>
</linearGradient>
<linearGradient id="paint23_linear" x1="319.195" y1="100.647" x2="274.975" y2="100.647" gradientUnits="userSpaceOnUse">
<stop stop-color="#3DDEED"/>
<stop offset="0.9966" stop-color="#CB00DD"/>
</linearGradient>
<linearGradient id="paint24_linear" x1="319.569" y1="99.3365" x2="273.669" y2="99.3365" gradientUnits="userSpaceOnUse">
<stop stop-color="#3DDEED"/>
<stop offset="0.9966" stop-color="#CB00DD"/>
</linearGradient>
<linearGradient id="paint25_linear" x1="319.729" y1="97.886" x2="272.392" y2="97.886" gradientUnits="userSpaceOnUse">
<stop stop-color="#3DDEED"/>
<stop offset="0.9966" stop-color="#CB00DD"/>
</linearGradient>
<linearGradient id="paint26_linear" x1="320.052" y1="97.2477" x2="271.136" y2="97.2477" gradientUnits="userSpaceOnUse">
<stop stop-color="#3DDEED"/>
<stop offset="0.9966" stop-color="#CB00DD"/>
</linearGradient>
<linearGradient id="paint27_linear" x1="322.792" y1="96.8815" x2="269.951" y2="96.8815" gradientUnits="userSpaceOnUse">
<stop stop-color="#3DDEED"/>
<stop offset="0.9966" stop-color="#CB00DD"/>
</linearGradient>
<linearGradient id="paint28_linear" x1="325.711" y1="96.5631" x2="268.833" y2="96.5631" gradientUnits="userSpaceOnUse">
<stop stop-color="#3DDEED"/>
<stop offset="0.9966" stop-color="#CB00DD"/>
</linearGradient>
<linearGradient id="paint29_linear" x1="328.807" y1="96.3119" x2="267.758" y2="96.3119" gradientUnits="userSpaceOnUse">
<stop stop-color="#3DDEED"/>
<stop offset="0.9966" stop-color="#CB00DD"/>
</linearGradient>
<linearGradient id="paint30_linear" x1="332.079" y1="96.1423" x2="266.802" y2="96.1423" gradientUnits="userSpaceOnUse">
<stop stop-color="#3DDEED"/>
<stop offset="0.9966" stop-color="#CB00DD"/>
</linearGradient>
<linearGradient id="paint31_linear" x1="335.534" y1="96.0691" x2="265.905" y2="96.0691" gradientUnits="userSpaceOnUse">
<stop stop-color="#3DDEED"/>
<stop offset="0.9966" stop-color="#CB00DD"/>
</linearGradient>
<linearGradient id="paint32_linear" x1="339.176" y1="96.0982" x2="265.147" y2="96.0982" gradientUnits="userSpaceOnUse">
<stop stop-color="#3DDEED"/>
<stop offset="0.9966" stop-color="#CB00DD"/>
</linearGradient>
<linearGradient id="paint33_linear" x1="343.008" y1="96.2712" x2="264.497" y2="96.2712" gradientUnits="userSpaceOnUse">
<stop stop-color="#3DDEED"/>
<stop offset="0.9966" stop-color="#CB00DD"/>
</linearGradient>
<linearGradient id="paint34_linear" x1="347.027" y1="96.5972" x2="263.944" y2="96.5972" gradientUnits="userSpaceOnUse">
<stop stop-color="#3DDEED"/>
<stop offset="0.9966" stop-color="#CB00DD"/>
</linearGradient>
<linearGradient id="paint35_linear" x1="351.229" y1="97.0963" x2="263.536" y2="97.0963" gradientUnits="userSpaceOnUse">
<stop stop-color="#3DDEED"/>
<stop offset="0.9966" stop-color="#CB00DD"/>
</linearGradient>
<linearGradient id="paint36_linear" x1="355.603" y1="97.7909" x2="262.197" y2="97.7908" gradientUnits="userSpaceOnUse">
<stop stop-color="#3DDEED"/>
<stop offset="0.9966" stop-color="#CB00DD"/>
</linearGradient>
<linearGradient id="paint37_linear" x1="360.146" y1="98.7051" x2="254.3" y2="98.7051" gradientUnits="userSpaceOnUse">
<stop stop-color="#3DDEED"/>
<stop offset="0.9966" stop-color="#CB00DD"/>
</linearGradient>
<linearGradient id="paint38_linear" x1="364.791" y1="99.864" x2="245.368" y2="99.8639" gradientUnits="userSpaceOnUse">
<stop stop-color="#3DDEED"/>
<stop offset="0.9966" stop-color="#CB00DD"/>
</linearGradient>
<linearGradient id="paint39_linear" x1="369.507" y1="101.294" x2="235.384" y2="101.294" gradientUnits="userSpaceOnUse">
<stop stop-color="#3DDEED"/>
<stop offset="0.9966" stop-color="#CB00DD"/>
</linearGradient>
<linearGradient id="paint40_linear" x1="374.3" y1="103.025" x2="224.241" y2="103.025" gradientUnits="userSpaceOnUse">
<stop stop-color="#3DDEED"/>
<stop offset="0.9966" stop-color="#CB00DD"/>
</linearGradient>
<linearGradient id="paint41_linear" x1="379" y1="105.072" x2="212.002" y2="105.072" gradientUnits="userSpaceOnUse">
<stop stop-color="#3DDEED"/>
<stop offset="0.9966" stop-color="#CB00DD"/>
</linearGradient>
<linearGradient id="paint42_linear" x1="413.313" y1="107.349" x2="447.813" y2="107.349" gradientUnits="userSpaceOnUse">
<stop stop-color="#3DDEED"/>
<stop offset="0.9966" stop-color="#CB00DD"/>
</linearGradient>
<linearGradient id="paint43_linear" x1="412.689" y1="108.247" x2="448.943" y2="108.247" gradientUnits="userSpaceOnUse">
<stop stop-color="#3DDEED"/>
<stop offset="0.9966" stop-color="#CB00DD"/>
</linearGradient>
<linearGradient id="paint44_linear" x1="412.21" y1="109.252" x2="450.075" y2="109.252" gradientUnits="userSpaceOnUse">
<stop stop-color="#3DDEED"/>
<stop offset="0.9966" stop-color="#CB00DD"/>
</linearGradient>
<linearGradient id="paint45_linear" x1="411.89" y1="110.381" x2="451.193" y2="110.381" gradientUnits="userSpaceOnUse">
<stop stop-color="#3DDEED"/>
<stop offset="0.9966" stop-color="#CB00DD"/>
</linearGradient>
<linearGradient id="paint46_linear" x1="411.753" y1="111.631" x2="452.287" y2="111.631" gradientUnits="userSpaceOnUse">
<stop stop-color="#3DDEED"/>
<stop offset="0.9966" stop-color="#CB00DD"/>
</linearGradient>
<linearGradient id="paint47_linear" x1="411.477" y1="112.181" x2="453.363" y2="112.181" gradientUnits="userSpaceOnUse">
<stop stop-color="#3DDEED"/>
<stop offset="0.9966" stop-color="#CB00DD"/>
</linearGradient>
<linearGradient id="paint48_linear" x1="409.13" y1="112.497" x2="454.377" y2="112.497" gradientUnits="userSpaceOnUse">
<stop stop-color="#3DDEED"/>
<stop offset="0.9966" stop-color="#CB00DD"/>
</linearGradient>
<linearGradient id="paint49_linear" x1="406.631" y1="112.771" x2="455.334" y2="112.771" gradientUnits="userSpaceOnUse">
<stop stop-color="#3DDEED"/>
<stop offset="0.9966" stop-color="#CB00DD"/>
</linearGradient>
<linearGradient id="paint50_linear" x1="403.98" y1="112.988" x2="456.255" y2="112.988" gradientUnits="userSpaceOnUse">
<stop stop-color="#3DDEED"/>
<stop offset="0.9966" stop-color="#CB00DD"/>
</linearGradient>
<linearGradient id="paint51_linear" x1="401.178" y1="113.134" x2="457.073" y2="113.134" gradientUnits="userSpaceOnUse">
<stop stop-color="#3DDEED"/>
<stop offset="0.9966" stop-color="#CB00DD"/>
</linearGradient>
<linearGradient id="paint52_linear" x1="398.219" y1="113.197" x2="457.842" y2="113.197" gradientUnits="userSpaceOnUse">
<stop stop-color="#3DDEED"/>
<stop offset="0.9966" stop-color="#CB00DD"/>
</linearGradient>
<linearGradient id="paint53_linear" x1="395.1" y1="113.172" x2="458.491" y2="113.172" gradientUnits="userSpaceOnUse">
<stop stop-color="#3DDEED"/>
<stop offset="0.9966" stop-color="#CB00DD"/>
</linearGradient>
<linearGradient id="paint54_linear" x1="391.82" y1="113.023" x2="459.048" y2="113.023" gradientUnits="userSpaceOnUse">
<stop stop-color="#3DDEED"/>
<stop offset="0.9966" stop-color="#CB00DD"/>
</linearGradient>
<linearGradient id="paint55_linear" x1="388.378" y1="112.742" x2="459.521" y2="112.742" gradientUnits="userSpaceOnUse">
<stop stop-color="#3DDEED"/>
<stop offset="0.9966" stop-color="#CB00DD"/>
</linearGradient>
<linearGradient id="paint56_linear" x1="384.78" y1="112.312" x2="459.87" y2="112.312" gradientUnits="userSpaceOnUse">
<stop stop-color="#3DDEED"/>
<stop offset="0.9966" stop-color="#CB00DD"/>
</linearGradient>
<linearGradient id="paint57_linear" x1="381.035" y1="111.713" x2="461.017" y2="111.713" gradientUnits="userSpaceOnUse">
<stop stop-color="#3DDEED"/>
<stop offset="0.9966" stop-color="#CB00DD"/>
</linearGradient>
<linearGradient id="paint58_linear" x1="377.145" y1="110.925" x2="467.779" y2="110.925" gradientUnits="userSpaceOnUse">
<stop stop-color="#3DDEED"/>
<stop offset="0.9966" stop-color="#CB00DD"/>
</linearGradient>
<linearGradient id="paint59_linear" x1="373.166" y1="109.926" x2="475.427" y2="109.926" gradientUnits="userSpaceOnUse">
<stop stop-color="#3DDEED"/>
<stop offset="0.9966" stop-color="#CB00DD"/>
</linearGradient>
<linearGradient id="paint60_linear" x1="369.129" y1="108.694" x2="483.976" y2="108.694" gradientUnits="userSpaceOnUse">
<stop stop-color="#3DDEED"/>
<stop offset="0.9966" stop-color="#CB00DD"/>
</linearGradient>
<linearGradient id="paint61_linear" x1="365.025" y1="107.202" x2="493.518" y2="107.202" gradientUnits="userSpaceOnUse">
<stop stop-color="#3DDEED"/>
<stop offset="0.9966" stop-color="#CB00DD"/>
</linearGradient>
<linearGradient id="paint62_linear" x1="361" y1="105.438" x2="503.998" y2="105.438" gradientUnits="userSpaceOnUse">
<stop stop-color="#3DDEED"/>
<stop offset="0.9966" stop-color="#CB00DD"/>
</linearGradient>
<clipPath id="clip0">
<rect width="167" height="152" fill="white" transform="translate(379 181) rotate(-180)"/>
</clipPath>
<clipPath id="clip1">
<rect width="143" height="131" fill="white" transform="translate(361 40)"/>
</clipPath>
</defs>
</svg>
