<svg width="674" height="575" viewBox="0 0 674 575" fill="none" xmlns="http://www.w3.org/2000/svg">
<g opacity="0.2">
<path d="M543.906 405.741C528.264 405.741 511.542 401.093 496.803 391.605C478.828 380.04 466.897 363.318 464.058 345.739C461.948 332.698 465.025 320.609 472.958 310.773C492.091 287.023 533.927 284.627 566.197 305.41C584.172 316.976 596.103 333.698 598.942 351.276C601.052 364.317 597.975 376.407 590.042 386.243C579.65 399.141 562.532 405.741 543.906 405.741ZM519.094 291.782C500.611 291.782 483.667 298.319 473.355 311.106C465.517 320.831 462.471 332.778 464.549 345.66C467.358 363.096 479.209 379.675 497.057 391.177C529.12 411.817 570.639 409.469 589.614 385.926C597.451 376.2 600.497 364.254 598.419 351.372C595.611 333.936 583.76 317.357 565.911 305.855C551.284 296.415 534.641 291.782 519.094 291.782Z" fill="url(#paint0_linear)"/>
<path d="M538.75 408.629C527.851 408.629 516.523 406.392 505.656 401.664C486.475 393.335 471.768 378.548 465.311 361.097C460.218 347.326 460.758 332.873 466.818 320.403C481.081 291.1 521.695 279.852 557.344 295.336C576.525 303.665 591.232 318.452 597.689 335.903C602.782 349.674 602.242 364.127 596.182 376.597C586.266 396.984 563.627 408.629 538.75 408.629ZM467.072 320.514L467.31 320.625C461.313 332.968 460.773 347.263 465.819 360.906C472.228 378.215 486.824 392.906 505.862 401.172C541.257 416.545 581.554 405.424 595.69 376.359C601.687 364.016 602.226 349.722 597.181 336.078C590.772 318.769 576.176 304.078 557.138 295.812C521.743 280.439 481.446 291.56 467.31 320.625L467.072 320.514Z" fill="url(#paint1_linear)"/>
<path d="M534.514 412.769C528.517 412.769 522.393 412.071 516.27 410.596C496.819 405.916 480.002 393.969 470.166 377.803C461.535 363.635 458.87 347.358 462.646 331.969L462.915 332.032L462.646 331.969C471.054 297.748 508.781 277.314 546.746 286.452C566.197 291.132 583.014 303.078 592.85 319.245C601.481 333.412 604.146 349.69 600.37 365.079C593.326 393.763 565.658 412.754 534.514 412.769ZM528.502 284.818C497.612 284.818 470.182 303.634 463.185 332.08C459.441 347.326 462.09 363.461 470.642 377.486C480.415 393.525 497.089 405.392 516.397 410.025C554.06 419.084 591.502 398.856 599.831 364.92C603.575 349.674 600.926 333.539 592.374 319.515C582.601 303.475 565.927 291.608 546.619 286.975C540.527 285.516 534.451 284.818 528.502 284.818Z" fill="url(#paint2_linear)"/>
<path d="M531.944 417.973C530.77 417.973 529.58 417.941 528.391 417.894C489.362 416.022 459.013 383.387 460.742 345.121C461.567 326.844 469.515 309.948 483.159 297.526C497.184 284.738 515.476 278.218 534.641 279.122C573.669 280.994 604.019 313.629 602.29 351.895C601.465 370.172 593.517 387.068 579.873 399.49C566.705 411.484 549.808 417.973 531.944 417.973ZM531.072 279.63C513.35 279.63 496.581 286.071 483.54 297.954C470.023 310.265 462.138 327.035 461.313 345.152C459.615 383.086 489.712 415.466 528.406 417.307C547.413 418.211 565.547 411.738 579.46 399.062C592.977 386.751 600.862 369.981 601.687 351.863C603.385 313.93 573.289 281.549 534.594 279.709C533.42 279.646 532.246 279.63 531.072 279.63Z" fill="url(#paint3_linear)"/>
<path d="M531.214 424.002C516.825 424.002 502.784 419.338 490.838 410.453C474.671 398.427 464.2 380.357 461.376 359.558C455.76 318.404 482.651 279.947 521.315 273.839C539.258 270.999 557.328 275.521 572.162 286.563C588.329 298.589 598.784 316.659 601.624 337.442C607.24 378.612 580.348 417.069 541.669 423.161C538.195 423.716 534.689 424.002 531.214 424.002ZM531.801 273.633C528.359 273.633 524.884 273.902 521.426 274.442C483.08 280.486 456.411 318.642 461.979 359.479C464.787 380.103 475.163 398.031 491.203 409.945C505.91 420.892 523.805 425.366 541.606 422.558C579.952 416.514 606.605 378.358 601.036 337.521C598.228 316.897 587.853 298.969 571.813 287.055C559.962 278.25 546.048 273.633 531.801 273.633Z" fill="url(#paint4_linear)"/>
<path d="M532.976 430.411C523.663 430.411 514.334 428.301 505.513 424.081C486.554 415.022 471.705 397.079 464.756 374.836C451.397 332.096 470.451 285.484 507.242 270.967C523.536 264.542 541.368 265.24 557.487 272.935C576.446 281.994 591.295 299.937 598.244 322.18C611.603 364.92 592.549 411.532 555.758 426.048C548.381 428.952 540.686 430.411 532.976 430.411ZM530.025 267.239C522.394 267.239 514.778 268.667 507.48 271.554C470.991 285.96 452.095 332.207 465.359 374.646C472.26 396.714 486.983 414.515 505.783 423.494C521.727 431.125 539.401 431.807 555.52 425.446C592.009 411.04 610.905 364.793 597.641 322.354C590.74 300.286 576.017 282.485 557.217 273.506C548.492 269.333 539.258 267.239 530.025 267.239Z" fill="url(#paint5_linear)"/>
<path d="M536.72 436.805C531.786 436.805 526.788 436.17 521.838 434.901C500.896 429.507 482.366 413.309 471.007 390.431C449.747 347.612 459.568 293.956 492.9 270.825C507.227 260.877 524.377 257.784 541.21 262.115C562.151 267.509 580.682 283.707 592.041 306.584C613.3 349.404 603.48 403.06 570.147 426.191C560.025 433.204 548.523 436.805 536.72 436.805ZM471.594 390.13C482.858 412.833 501.23 428.904 521.997 434.251C538.623 438.534 555.583 435.472 569.751 425.636C602.829 402.695 612.555 349.404 591.422 306.87C580.158 284.167 561.786 268.096 541.019 262.749C524.393 258.466 507.433 261.528 493.265 271.364C460.187 294.321 450.461 347.596 471.594 390.13Z" fill="url(#paint6_linear)"/>
<path d="M542.161 442.802C541.067 442.802 539.956 442.77 538.845 442.707C517.11 441.422 495.708 427.968 480.097 405.773C451.064 364.508 450.461 305.236 478.765 273.649C490.854 260.163 506.973 253.294 524.186 254.309C545.921 255.594 567.323 269.048 582.935 291.243C611.968 332.508 612.57 391.78 584.267 423.367C572.955 435.98 558.122 442.802 542.161 442.802ZM520.855 254.912C505.101 254.912 490.425 261.655 479.256 274.125C451.159 305.474 451.778 364.365 480.637 405.376C496.121 427.397 517.348 440.755 538.861 442.009C555.853 443.008 571.797 436.218 583.728 422.907C611.825 391.558 611.206 332.667 582.348 291.655C566.863 269.635 545.636 256.292 524.123 255.023C523.044 254.944 521.949 254.912 520.855 254.912Z" fill="url(#paint7_linear)"/>
<path d="M548.745 448.037C529.422 448.037 509.099 438.169 491.933 420.242C455.57 382.229 443.671 319.134 465.422 279.598C474.862 262.432 489.664 251.723 507.1 249.439C528.47 246.63 551.791 256.594 571.083 276.774C607.446 314.787 619.345 377.882 597.594 417.418C588.154 434.584 573.352 445.293 555.916 447.577C553.552 447.895 551.157 448.037 548.745 448.037ZM514.271 249.692C511.891 249.692 509.527 249.851 507.195 250.153C489.997 252.405 475.385 262.987 466.057 279.947C444.448 319.245 456.3 381.959 492.456 419.75C511.589 439.756 534.689 449.64 555.837 446.863C573.035 444.611 587.646 434.029 596.975 417.069C618.583 377.771 606.732 315.056 570.576 277.266C553.537 259.481 533.388 249.692 514.271 249.692Z" fill="url(#paint8_linear)"/>
<path d="M556.027 452.273C539.972 452.273 522.584 445.721 506.338 433.235C463.391 400.236 439.673 335.395 453.476 288.705C459.679 267.715 472.752 253.008 490.283 247.313C510.384 240.776 534.594 246.773 556.694 263.765C599.64 296.764 623.359 361.605 609.556 408.295C603.353 429.285 590.28 443.992 572.749 449.687C567.419 451.433 561.802 452.273 556.027 452.273ZM506.989 245.488C501.277 245.488 495.74 246.329 490.489 248.027C473.212 253.643 460.314 268.159 454.174 288.911C440.45 335.332 464.058 399.808 506.782 432.632C528.692 449.465 552.648 455.431 572.511 448.973C589.788 443.357 602.687 428.841 608.826 408.089C622.55 361.668 598.942 297.192 556.218 264.368C540.115 251.977 522.885 245.488 506.989 245.488Z" fill="url(#paint9_linear)"/>
<path d="M563.103 455.462C550.49 455.462 536.831 451.655 522.933 444.119C474.481 417.814 438.832 353.561 443.465 300.889C445.654 276.06 456.442 257.228 473.846 247.884C492.329 237.968 515.841 239.745 540.067 252.897C588.519 279.201 624.168 343.455 619.535 396.127C617.346 420.956 606.558 439.788 589.154 449.132C581.285 453.352 572.479 455.462 563.103 455.462ZM499.913 242.331C490.663 242.331 481.985 244.409 474.227 248.566C457.061 257.799 446.416 276.393 444.258 300.952C439.657 353.339 475.116 417.259 523.314 443.421C547.302 456.446 570.56 458.223 588.789 448.434C605.955 439.216 616.6 420.607 618.758 396.048C623.359 343.661 587.9 279.741 539.702 253.579C525.916 246.107 512.383 242.331 499.913 242.331Z" fill="url(#paint10_linear)"/>
<path d="M569.687 457.35C560.771 457.35 551.236 455.669 541.32 452.273C488.744 434.251 441.482 373.091 435.976 315.945C433.248 287.546 441.037 264.558 457.95 251.231C474.084 238.492 496.724 236.191 521.679 244.742C574.256 262.765 621.518 323.925 627.024 381.071C629.752 409.469 621.963 432.458 605.05 445.785C595.325 453.463 583.236 457.35 569.687 457.35ZM493.329 240.475C479.97 240.475 468.04 244.298 458.457 251.866C441.783 265.034 434.088 287.753 436.801 315.866C442.275 372.726 489.283 433.568 541.59 451.496C566.276 459.952 588.646 457.699 604.559 445.134C621.233 431.966 628.927 409.247 626.214 381.134C620.741 324.274 573.733 263.432 521.426 245.504C511.605 242.141 502.15 240.475 493.329 240.475Z" fill="url(#paint11_linear)"/>
<path d="M574.494 458.223C570.116 458.223 565.594 457.874 560.946 457.176C505.878 448.847 447.828 393.398 431.518 333.571C423.11 302.745 427.203 275.045 442.735 257.609C456.252 242.41 477.337 236.112 502.07 239.856C557.138 248.185 615.188 303.634 631.497 363.461C639.906 394.287 635.813 421.987 620.281 439.423C609.302 451.75 593.342 458.223 574.494 458.223ZM488.522 239.634C469.912 239.634 454.174 246.012 443.37 258.164C428.028 275.394 424.014 302.793 432.328 333.349C448.557 392.891 506.306 448.053 561.057 456.335C585.505 460.031 606.304 453.828 619.63 438.852C634.972 421.622 638.986 394.223 630.657 363.667C614.427 304.125 556.678 248.963 501.928 240.681C497.327 239.983 492.853 239.634 488.522 239.634Z" fill="url(#paint12_linear)"/>
<path d="M576.795 458.429C522.013 458.429 457.188 412.182 430.471 353.291C415.701 320.736 414.971 289.419 428.472 267.382C439.149 249.962 458.108 239.777 481.874 238.682C537.513 236.144 605.114 283.263 632.529 343.725C647.299 376.28 648.029 407.597 634.528 429.634C623.851 447.054 604.892 457.239 581.126 458.334C579.698 458.397 578.254 458.429 576.795 458.429ZM581.094 457.445L581.11 457.89L581.094 457.445C604.559 456.367 623.263 446.34 633.782 429.174C647.125 407.407 646.379 376.391 631.735 344.105C604.448 283.945 537.259 237.048 481.922 239.586C458.457 240.665 439.752 250.692 429.234 267.858C415.891 289.625 416.637 320.641 431.28 352.926C458.568 413.071 525.773 459.968 581.094 457.445Z" fill="url(#paint13_linear)"/>
<path d="M576.097 458.477C525.662 458.477 466.009 424.716 433.216 374.535C411.814 341.805 405.436 307.743 415.685 281.089C423.332 261.21 439.276 247.582 461.821 241.649C515.984 227.386 591.343 263.654 629.8 322.481C651.202 355.211 657.58 389.273 647.331 415.927C639.684 435.806 623.739 449.434 601.195 455.367C593.231 457.461 584.791 458.477 576.097 458.477ZM486.951 239.459C478.32 239.459 469.959 240.459 462.059 242.537C439.816 248.391 424.078 261.845 416.542 281.423C406.404 307.79 412.75 341.551 433.977 374.027C472.244 432.553 547.143 468.646 600.941 454.479C623.184 448.624 638.922 435.187 646.442 415.593C656.58 389.226 650.234 355.465 629.007 322.989C596.388 273.062 537.069 239.459 486.951 239.459Z" fill="url(#paint14_linear)"/>
<path d="M571.892 459.016C526.867 459.016 475.163 436.028 439.959 396.635C412.242 365.634 399.566 330.128 405.151 299.255C409.165 277.123 422.142 259.735 442.672 248.963C493.138 222.516 574.05 245.567 623.041 300.381C650.758 331.382 663.434 366.872 657.849 397.761C653.836 419.893 640.858 437.281 620.329 448.053L620.106 447.625L620.329 448.053C606.129 455.494 589.519 459.016 571.892 459.016ZM491.155 238.952C473.672 238.952 457.22 242.442 443.148 249.819C422.888 260.449 410.085 277.599 406.118 299.429C400.582 330.017 413.178 365.206 440.688 395.984C475.718 435.171 527.121 458.064 571.877 458.064C589.36 458.064 605.812 454.574 619.884 447.197C640.144 436.567 652.963 419.417 656.913 397.587C662.45 366.999 649.853 331.81 622.343 301.032C587.297 261.845 535.895 238.952 491.155 238.952Z" fill="url(#paint15_linear)"/>
<path d="M564.071 460.872C526.106 460.872 484.317 446.483 450.794 418.814C417.732 391.51 398.503 356.337 398.059 322.275C397.742 297.795 407.165 276.52 425.299 260.75C469.801 222.04 553.648 229.877 612.221 278.202C645.3 305.49 664.513 340.679 664.957 374.741C665.274 399.221 655.85 420.496 637.717 436.266C618.678 452.829 592.438 460.872 564.071 460.872ZM498.945 237.143C470.816 237.143 444.813 245.107 425.95 261.512C408.054 277.076 398.757 298.081 399.074 322.259C399.518 356.02 418.604 390.939 451.445 418.037C509.638 466.076 592.914 473.913 637.066 435.504L637.399 435.885L637.066 435.504C654.962 419.94 664.259 398.919 663.957 374.757C663.513 340.996 644.427 306.093 611.587 278.979C578.238 251.469 536.672 237.143 498.945 237.143Z" fill="url(#paint16_linear)"/>
<path d="M553.886 464.791C524.646 464.791 493.646 456.779 465.66 440.232C428.758 418.417 403.31 385.561 395.854 350.055C390.317 323.703 395.505 297.732 410.465 276.917C446.781 226.371 530.612 217.344 597.34 256.768C634.242 278.583 659.69 311.439 667.146 346.945C672.683 373.297 667.495 399.268 652.535 420.083L652.106 419.782L652.535 420.083C631.466 449.434 594.357 464.791 553.886 464.791ZM509.099 233.272C468.96 233.272 432.201 248.471 411.322 277.551C396.33 298.43 391.332 323.433 396.885 349.864C404.278 385.069 429.535 417.688 466.199 439.343C494.027 455.795 524.853 463.76 553.901 463.76C594.04 463.76 630.799 448.561 651.678 419.48C666.67 398.602 671.668 373.599 666.115 347.167C658.722 311.963 633.465 279.344 596.801 257.688C568.973 241.236 538.163 233.272 509.099 233.272Z" fill="url(#paint17_linear)"/>
<path d="M543.78 471.2C524.234 471.2 504.022 467.599 484.365 460C445.48 444.96 414.749 416.45 400.058 381.769C388.191 353.751 387.826 323.751 399.027 297.256C425.014 235.795 505.592 208.761 578.651 237.016C617.536 252.056 648.267 280.566 662.958 315.247C674.825 343.265 675.19 373.265 663.989 399.76C644.999 444.674 596.832 471.2 543.78 471.2ZM519.221 226.894C466.58 226.894 418.842 253.167 400.01 297.684C388.921 323.893 389.286 353.609 401.042 381.341C415.622 415.752 446.13 444.055 484.746 458.984C557.249 487.018 637.209 460.254 662.99 399.332C674.079 373.123 673.715 343.407 661.958 315.675C647.379 281.264 616.87 252.961 578.254 238.032C558.725 230.48 538.639 226.894 519.221 226.894Z" fill="url(#paint18_linear)"/>
<path d="M535.958 480.085C526.264 480.085 516.396 479.165 506.481 477.229C469.134 469.963 436.611 449.767 414.923 420.321C393.22 390.876 384.954 355.703 391.649 321.323C405.452 250.343 479.415 204.794 556.535 219.787C633.655 234.779 685.169 304.712 671.382 375.693L670.827 375.582L671.382 375.693C659.357 437.535 601.639 480.085 535.958 480.085ZM527.042 218.073C461.9 218.073 404.675 260.227 392.76 321.529C386.144 355.608 394.331 390.447 415.844 419.639C437.357 448.847 469.626 468.9 506.703 476.103C516.539 478.022 526.344 478.943 535.958 478.943C601.1 478.943 658.325 436.789 670.24 375.471C683.916 305.109 632.798 235.779 556.297 220.897C546.461 218.993 536.672 218.073 527.042 218.073Z" fill="url(#paint19_linear)"/>
<path d="M531.5 491.016C452.92 491.016 389 427.08 389 348.5C389 269.92 452.92 206 531.5 206C610.08 206 674 269.92 674 348.5C674 427.08 610.08 491.016 531.5 491.016ZM531.5 207.19C453.571 207.19 390.19 270.587 390.19 348.5C390.19 426.413 453.587 489.81 531.5 489.81C609.413 489.81 672.81 426.413 672.81 348.5C672.81 270.587 609.429 207.19 531.5 207.19Z" fill="url(#paint20_linear)"/>
</g>
<g opacity="0.5" clip-path="url(#clip0)">
<path d="M526.407 216.432C523.445 292.122 413.511 385.235 276.318 426.763C180.671 455.702 92.5736 453.302 46.4503 420.492C26.6833 406.431 15.7819 387.12 14.8935 364.64C11.8714 287.937 124.062 190.783 264.984 148.144C360.661 119.206 448.728 121.605 494.881 154.415C514.648 168.477 525.55 187.788 526.438 210.268C526.508 212.306 526.488 214.37 526.407 216.432ZM16.452 358.506C16.3725 360.538 16.3827 362.573 16.454 364.581C17.3494 386.882 27.7485 405.246 47.3695 419.212C93.1142 451.737 180.675 454.056 275.897 425.25C412.453 383.936 521.913 291.464 524.849 216.431C524.928 214.399 524.918 212.363 524.847 210.355C523.981 188.055 513.583 169.662 493.961 155.726C448.216 123.201 360.655 120.882 265.433 149.687C128.879 190.971 19.389 283.443 16.452 358.506Z" fill="url(#paint21_linear)"/>
<path d="M531.274 200.791C528.469 272.477 428.09 367.22 295.226 419.872C196.211 459.093 98.9965 466.063 47.548 437.624C27.1025 426.349 14.8734 410.339 11.1399 390.111C-2.30632 317.131 103.076 211.689 246.077 155.005C345.092 115.784 442.306 108.814 493.755 137.253C514.199 148.557 526.43 164.538 530.163 184.766C531.128 189.981 531.488 195.322 531.274 200.791ZM11.5882 374.058C11.3766 379.466 11.7405 384.718 12.6787 389.842C16.3112 409.587 28.3162 425.2 48.3199 436.278C99.3876 464.492 196.063 457.501 294.653 418.443C426.938 366.038 526.902 271.937 529.712 200.879C529.924 195.471 529.56 190.219 528.622 185.095C524.989 165.35 512.984 149.737 492.981 138.659C441.913 110.445 345.237 117.436 246.648 156.494C114.393 208.9 14.3686 302.999 11.5882 374.058Z" fill="url(#paint22_linear)"/>
<path d="M534.307 185.317C531.632 253.687 441.029 349.022 314.265 411.189C212.312 461.159 109.277 478.257 51.7034 454.726C30.7027 446.153 16.8735 432.743 10.5906 414.87C-13.3816 346.684 83.7435 234.007 227.066 163.719C328.99 113.747 432.054 96.6512 489.598 120.181C510.599 128.754 524.428 142.164 530.711 160.037L529.951 160.307L530.711 160.037C533.49 167.897 534.656 176.382 534.307 185.317ZM8.5578 389.471C8.21405 398.257 9.35513 406.621 12.079 414.359C18.1998 431.777 31.7416 444.877 52.2993 453.282C109.46 476.648 212.015 459.562 313.541 409.784C439.785 347.866 530.093 253.177 532.743 185.465C533.086 176.68 531.945 168.316 529.222 160.577C523.101 143.16 509.559 130.06 489.001 121.654C431.84 98.2888 329.286 115.375 227.76 165.152C101.516 227.041 11.2084 321.729 8.5578 389.471Z" fill="url(#paint23_linear)"/>
<path d="M535.428 170.457C532.861 236.047 452.171 330.783 333.134 400.735C230.475 461.062 123.01 488.76 59.3554 471.306C37.4451 465.301 21.963 454.31 13.2885 438.588C-21.1563 376.128 66.2526 257.504 208.139 174.141C310.828 113.815 418.292 86.1168 481.917 103.57C503.828 109.575 519.31 120.566 527.984 136.288C533.524 146.351 535.92 157.877 535.428 170.457ZM7.4082 404.3C6.92415 416.671 9.26832 427.986 14.7252 437.866C23.1755 453.19 38.3379 463.929 59.804 469.797C123.044 487.145 230.027 459.488 332.347 399.387C473.497 316.474 560.629 198.797 526.605 137.072L527.31 136.68L526.605 137.072C518.155 121.747 502.993 111.009 481.526 105.141C418.287 87.7926 311.303 115.449 208.983 175.551C90.4079 245.191 9.94888 339.367 7.4082 404.3Z" fill="url(#paint24_linear)"/>
<path d="M534.733 156.813C534.6 160.219 534.283 163.708 533.753 167.309C524.271 231.97 452.818 318.837 351.677 388.621C213.147 484.236 64.0816 516.711 19.3949 460.973C8.36582 447.224 4.39387 429.262 7.57769 407.629C17.06 342.967 88.5128 256.1 189.653 186.316C328.185 90.6715 477.279 58.2278 521.966 113.966C531.108 125.396 535.399 139.78 534.733 156.813ZM8.12476 418.155C7.47352 434.799 11.6596 448.819 20.6027 459.973C64.7742 515.092 212.886 482.49 350.769 387.329C451.541 317.77 522.768 231.313 532.174 167.067C535.282 145.851 531.412 128.341 520.669 114.932L521.287 114.448L520.669 114.932C476.498 59.8134 328.386 92.4152 190.503 187.577C89.7308 257.136 18.5338 343.594 9.12772 407.839C8.59962 411.38 8.25571 414.808 8.12476 418.155Z" fill="url(#paint25_linear)"/>
<path d="M532.122 144.65C529.667 207.401 466.116 297.57 369.622 374.958C236.252 481.908 83.3486 529.765 28.7751 481.631C15.2476 469.699 8.65223 452.921 9.14973 431.782C10.6177 368.992 74.412 277.964 171.679 199.948C305.051 92.9686 457.954 45.1118 512.526 93.2756L511.994 93.8533L512.526 93.2756C526.054 105.207 532.649 121.985 532.152 143.125C532.162 143.634 532.142 144.142 532.122 144.65ZM10.7652 430.319C10.7454 430.827 10.7255 431.335 10.7068 431.813C10.228 452.474 16.6602 468.827 29.8116 480.415C83.833 528.108 235.839 480.216 368.652 373.723C465.578 295.993 529.175 205.407 530.595 143.094C531.074 122.432 524.641 106.08 511.49 94.492C457.467 46.8285 305.463 94.6906 172.678 201.214C76.527 278.286 13.2042 367.986 10.7652 430.319Z" fill="url(#paint26_linear)"/>
<path d="M527.728 134.422C525.374 194.574 471.675 281.088 386.725 359.856C260.325 477.074 105.42 540.086 41.4399 500.293C25.1735 490.199 15.9318 474.425 13.9066 453.426C8.11123 393.225 63.3151 299.647 154.578 215.021C280.978 97.8028 435.882 34.8211 499.862 74.6141C516.128 84.7077 525.37 100.482 527.395 121.481C527.802 125.626 527.902 129.97 527.728 134.422ZM15.1333 440.456C14.9602 444.878 15.0635 449.132 15.4706 453.278C17.4271 473.735 26.4447 489.112 42.2717 498.949C105.696 538.391 259.728 475.465 385.661 358.707C470.301 280.227 523.833 194.125 526.17 134.421C526.343 129.999 526.239 125.745 525.832 121.599C523.876 101.142 514.858 85.7653 499.031 75.9283C435.607 36.4862 281.574 99.4123 155.642 216.17C71.001 294.68 17.4693 380.752 15.1333 440.456Z" fill="url(#paint27_linear)"/>
<path d="M521.775 126.498C519.524 184.02 475.302 265.758 402.766 343.544C285.064 469.752 130.095 547.426 57.2802 516.684C38.0009 508.538 25.9068 493.669 21.3706 472.513C9.15983 415.442 55.1462 320.785 138.506 231.361C256.208 105.153 411.177 27.4799 483.992 58.2214C503.271 66.3678 515.365 81.2361 519.901 102.393C521.498 109.818 522.112 117.892 521.775 126.498ZM21.1162 448.381C20.783 456.898 21.3707 464.851 22.9417 472.185C27.3493 492.798 39.0984 507.294 57.9071 515.212C130.161 545.723 284.344 468.228 401.61 342.452C484.655 253.405 530.47 159.31 518.36 102.722C513.952 82.1086 502.173 67.6118 483.395 59.6944L483.693 58.9579L483.395 59.6944C411.14 29.1843 256.957 106.679 139.692 232.455C67.4368 309.953 23.3505 391.277 21.1162 448.381Z" fill="url(#paint28_linear)"/>
<path d="M514.521 121.964C513.741 141.895 508.592 164.738 499.135 189.687C482.925 232.537 454.707 279.736 417.501 326.134C310.199 459.962 157.109 551.655 76.1867 530.532C53.5237 524.618 38.3967 510.678 31.2403 489.09C22.5826 462.983 26.3552 427.068 42.1657 385.25C58.376 342.399 86.5933 295.2 123.799 248.802C231.101 114.975 384.192 23.2815 465.115 44.3744C487.778 50.289 502.905 64.2285 510.061 85.8169C513.574 96.3691 515.048 108.488 514.521 121.964ZM28.4404 453.426C27.9307 466.455 29.3251 478.301 32.7286 488.579C39.7265 509.623 54.4774 523.218 76.5766 528.991C156.935 549.972 309.327 458.521 416.252 325.128C489.971 233.202 526.183 139.449 508.573 86.3273C501.575 65.2838 486.824 51.6882 464.725 45.9154C384.367 24.9344 231.975 116.386 125.05 249.779C65.6031 323.887 30.5625 399.191 28.4404 453.426Z" fill="url(#paint29_linear)"/>
<path d="M506.318 120.985C504.33 171.784 477.832 238.623 430.715 307.797C335.401 447.72 186.139 552.611 97.9592 541.589C71.9848 538.358 52.9975 525.046 43.0966 503.141C20.1206 452.382 45.9858 361.906 110.589 267.05C205.904 127.127 355.165 22.2354 443.345 33.2573L443.255 34.032L443.345 33.2573C469.319 36.4883 488.307 49.8008 498.207 71.7061C504.441 85.4772 507.056 102.129 506.318 120.985ZM36.5131 453.892C35.7836 472.538 38.3778 488.95 44.5298 502.508C54.3491 524.201 72.3747 536.817 98.1696 540.041C185.813 550.982 334.402 446.424 429.431 306.909C476.389 237.968 502.816 171.425 504.79 120.985C505.519 102.339 502.925 85.9267 496.773 72.3682C486.954 50.6757 468.928 38.0592 443.133 34.8352C355.49 23.8942 206.9 128.453 111.872 267.968C64.9437 336.91 38.4868 403.451 36.5131 453.892Z" fill="url(#paint30_linear)"/>
<path d="M497.456 123.84C495.65 170.008 476.686 228.073 442.244 288.855C360.359 433.254 216.915 550.284 122.422 549.759C92.5522 549.578 69.8297 537.526 56.7208 514.896C29.4614 467.921 45.689 380.21 99.0876 286.053C180.944 141.623 324.417 24.5937 418.88 25.1474C448.749 25.3285 471.472 37.3806 484.582 59.98C494.237 76.6683 498.45 98.4409 497.456 123.84ZM45.4026 451.097C44.4216 476.168 48.5548 497.668 58.1 514.112C70.8996 536.221 93.1539 547.985 122.424 548.173C216.408 548.708 359.238 432.043 440.837 288.052C493.948 194.362 510.181 107.28 483.202 60.794C470.372 38.6843 448.118 26.9199 418.848 26.7323C324.864 26.1973 182.034 142.863 100.435 286.853C66.1213 347.401 47.1973 405.229 45.4026 451.097Z" fill="url(#paint31_linear)"/>
<path d="M488.963 131.828C487.411 171.481 474.923 218.757 451.845 269.419C384.775 416.582 249.052 544.598 149.287 554.731C115.379 558.192 88.6107 547.688 71.8437 524.347C40.383 480.589 46.9711 398.755 89.4571 305.488C156.528 158.295 292.249 30.3083 391.986 20.1449C425.894 16.6832 452.662 27.1877 469.429 50.5288C483.839 70.5455 490.268 98.48 488.963 131.828ZM53.8936 443.169C52.604 476.129 58.9557 503.731 73.1378 523.44C89.5644 546.289 115.833 556.564 149.138 553.169C248.393 543.076 383.529 415.486 450.403 268.734C492.66 175.966 499.313 94.7638 468.165 51.437C451.738 28.588 425.47 18.3127 392.165 21.7081C292.909 31.8306 157.772 159.421 90.8998 306.143C67.8868 356.658 55.4358 403.755 53.8936 443.169Z" fill="url(#paint32_linear)"/>
<path d="M480.755 144.765C479.522 176.29 472.404 211.924 459.357 249.751C408.281 397.899 282.221 535.511 178.317 556.465C140.378 564.139 109.249 555.558 88.3087 531.665C53.4252 491.903 51.0526 414.687 81.9451 325.155C133.021 177.008 259.111 39.3964 363.015 18.4426C400.953 10.7692 432.082 19.3494 453.023 43.2429C473.132 66.1761 482.442 101.645 480.755 144.765ZM62.1012 430.233C60.4316 472.904 69.6086 507.949 89.4878 530.634C110.057 554.064 140.653 562.473 178.017 554.927C281.41 534.043 406.97 396.92 457.878 249.244C488.571 160.214 486.295 83.6001 451.814 44.273C431.245 20.8429 400.648 12.4332 363.315 19.9806C259.922 40.8647 134.361 177.988 83.4535 325.663C70.411 363.371 63.3289 398.857 62.1012 430.233Z" fill="url(#paint33_linear)"/>
<path d="M474.038 163.266C473.217 184.243 470.121 206.688 464.708 230.148C430.628 377.405 315.971 523.065 209.155 554.859C167.345 567.289 131.657 561.104 105.93 536.993C67.9485 501.36 56.9759 429.493 76.592 344.788C110.673 197.501 225.331 51.8414 332.147 20.0479C373.957 7.61795 409.645 13.8027 435.371 37.9134C462.86 63.7091 476.183 108.433 474.038 163.266ZM68.8472 411.762C66.7204 466.117 79.8828 510.356 107.024 535.839C132.316 559.573 167.47 565.618 208.735 553.346C315.035 521.712 429.194 376.541 463.165 229.759C482.641 145.587 471.855 74.2963 434.307 39.0689C409.015 15.3343 373.861 9.29018 332.597 21.5619C226.267 53.1948 112.108 198.366 78.1362 345.148C72.7279 368.489 69.6645 390.875 68.8472 411.762Z" fill="url(#paint34_linear)"/>
<path d="M469.688 184.824C469.359 193.25 468.69 201.903 467.715 210.753C451.452 355.265 349.968 507.367 241.477 549.808C196.832 567.275 155.339 563.946 124.675 540.42C83.1867 508.63 64.5749 444.365 73.588 364.123C89.8506 219.611 191.335 67.51 299.826 25.0681C344.47 7.60145 385.964 10.9308 416.628 34.4566C453.547 62.7761 472.352 116.753 469.688 184.824ZM73.198 390.175C70.5556 457.708 89.1384 511.227 125.652 539.201C156.287 562.696 196.138 565.871 240.904 548.35C348.879 506.097 449.921 354.577 466.134 210.572C475.095 130.896 456.701 67.1791 415.68 35.7064C385.015 12.2105 345.164 9.03516 300.427 26.5581C192.424 68.7796 91.3819 220.3 75.1691 364.305C74.1648 373.124 73.5277 381.748 73.198 390.175Z" fill="url(#paint35_linear)"/>
<path d="M468.057 210.438C462.777 345.384 378.931 490.873 274.89 541.36C227.421 564.402 181.17 564.717 144.621 542.248C100.259 514.984 74.1523 456.921 72.9998 382.985C70.8325 243.078 157.576 86.3304 266.381 33.5459C313.851 10.5036 360.102 10.1884 396.651 32.6576C441.013 59.9215 467.119 117.985 468.272 191.921C468.391 198.061 468.299 204.252 468.057 210.438ZM74.8317 364.501C74.5897 370.687 74.4996 376.818 74.619 382.958C75.7327 456.354 101.559 513.928 145.483 540.905C181.535 563.055 227.277 562.72 274.227 539.927C377.749 489.689 461.212 344.784 466.5 210.407C466.742 204.221 466.832 198.089 466.712 191.95C465.569 118.553 439.743 60.9791 395.849 34.0028C359.797 11.8524 314.055 12.1875 267.104 34.9808C163.554 85.1877 80.0908 230.093 74.8317 364.501Z" fill="url(#paint36_linear)"/>
<path d="M469.798 235.645C465.197 353.229 400.51 476.244 309.037 529.498C259.696 558.243 208.931 562.87 166.125 542.551C118.788 520.078 85.566 468.5 74.9302 401.046C53.928 267.676 124.509 108.111 232.266 45.379C281.607 16.634 332.371 12.0063 375.178 32.326C422.514 54.7982 455.738 106.346 466.373 173.83C469.54 193.976 470.616 214.728 469.798 235.645ZM73.0624 339.263C72.2475 360.09 73.3269 380.753 76.4678 400.807C87.0039 467.748 119.914 518.895 166.781 541.11C209.117 561.202 259.341 556.583 308.222 528.119C415.457 465.696 485.68 306.865 464.775 174.067C454.239 107.126 421.329 55.9789 374.462 33.7644C332.126 13.6726 281.902 18.2915 233.021 46.7553C142.037 99.7583 77.6422 222.216 73.0624 339.263Z" fill="url(#paint37_linear)"/>
<path d="M475.021 258.385C471.098 358.638 421.672 460.792 343.494 514.296C293.427 548.579 238.752 558.171 189.576 541.343C138.332 523.776 99.1996 480.017 79.386 418.13C39.3889 293.084 92.5325 132.687 197.838 60.6119C247.905 26.3287 302.55 16.7352 351.754 33.5943C402.999 51.1617 442.131 94.9206 461.944 156.808C472.251 189.024 476.352 223.601 475.021 258.385ZM67.8689 316.524C66.5138 351.157 70.6218 385.555 80.8731 417.649C100.526 479.052 139.312 522.468 190.085 539.837C238.786 556.527 292.95 546.974 342.585 513.003C420.364 459.753 469.531 358.098 473.433 258.382C474.788 223.749 470.68 189.352 460.429 157.257C440.777 95.8253 401.99 52.439 351.218 35.0398C302.516 18.35 248.353 27.9024 198.718 61.8734C120.939 115.124 71.7717 216.779 67.8689 316.524Z" fill="url(#paint38_linear)"/>
<path d="M483.492 277.002C480.218 360.671 442.664 444.315 377.774 495.945C328.411 535.224 270.825 550.298 215.642 538.413C160.756 526.599 114.831 489.487 86.3203 433.904C27.348 318.979 61.9868 159.743 163.498 78.9604C212.861 39.6817 270.448 24.577 325.631 36.4626C380.517 48.2768 426.442 85.3882 454.952 140.972C476.253 182.477 485.342 229.729 483.492 277.002ZM59.3964 297.937C57.5573 344.941 66.5969 391.922 87.757 433.182C116.045 488.338 161.591 525.165 215.972 536.869C270.679 548.647 327.782 533.673 376.775 494.679C477.728 414.353 512.182 256.008 453.546 141.695C425.258 86.539 379.711 49.7117 325.301 38.006C270.593 26.2287 213.491 41.2027 164.498 80.1967C99.979 131.542 62.6515 214.746 59.3964 297.937Z" fill="url(#paint39_linear)"/>
<path d="M494.848 290.046C492.167 358.565 463.772 426.406 411.547 474.492C364.389 517.897 305.257 538.777 245.06 533.279C186.086 527.919 133.09 497.684 95.8288 448.222C18.2048 345.107 33.4502 189.063 129.815 100.417C176.972 57.0122 236.104 36.1321 296.301 41.6298C355.275 46.9899 408.272 77.2254 445.533 126.687C481.024 173.895 497.112 232.195 494.848 290.046ZM48.0389 284.923C45.7894 342.416 61.772 400.352 97.0642 447.283C134.039 496.404 186.655 526.385 245.182 531.698C304.932 537.148 363.609 516.4 410.454 473.312C506.229 385.182 521.376 230.121 444.237 127.624C407.263 78.5027 354.676 48.5227 296.121 43.179C236.371 37.7286 177.694 58.4769 130.849 101.565C78.9345 149.363 50.7036 216.823 48.0389 284.923Z" fill="url(#paint40_linear)"/>
<path d="M508.454 296.923C506.293 352.144 485.004 406.857 444.261 450.213C354.398 545.787 203.451 550.535 107.713 460.808C12.0043 371.081 7.20609 220.298 97.0394 124.723C186.874 29.118 337.851 24.3712 433.559 114.098C485.88 163.131 511.058 230.376 508.454 296.923ZM34.4336 278.046C31.8473 344.144 56.8331 410.933 108.807 459.653C203.909 548.787 353.866 544.061 443.106 449.091C483.568 406.022 504.724 351.664 506.869 296.831C509.456 230.732 484.47 163.944 432.496 115.223C337.394 26.0891 187.437 30.816 98.1965 125.786C57.7347 168.854 36.579 223.213 34.4336 278.046Z" fill="url(#paint41_linear)"/>
</g>
<defs>
<linearGradient id="paint0_linear" x1="463.415" y1="348.506" x2="599.598" y2="348.506" gradientUnits="userSpaceOnUse">
<stop stop-color="#3DDEED"/>
<stop offset="0.9966" stop-color="#CB00DD"/>
</linearGradient>
<linearGradient id="paint1_linear" x1="461.849" y1="348.506" x2="601.163" y2="348.506" gradientUnits="userSpaceOnUse">
<stop stop-color="#3DDEED"/>
<stop offset="0.9966" stop-color="#CB00DD"/>
</linearGradient>
<linearGradient id="paint2_linear" x1="460.967" y1="348.506" x2="602.046" y2="348.506" gradientUnits="userSpaceOnUse">
<stop stop-color="#3DDEED"/>
<stop offset="0.9966" stop-color="#CB00DD"/>
</linearGradient>
<linearGradient id="paint3_linear" x1="460.664" y1="348.506" x2="602.349" y2="348.506" gradientUnits="userSpaceOnUse">
<stop stop-color="#3DDEED"/>
<stop offset="0.9966" stop-color="#CB00DD"/>
</linearGradient>
<linearGradient id="paint4_linear" x1="460.634" y1="348.506" x2="602.379" y2="348.506" gradientUnits="userSpaceOnUse">
<stop stop-color="#3DDEED"/>
<stop offset="0.9966" stop-color="#CB00DD"/>
</linearGradient>
<linearGradient id="paint5_linear" x1="460.492" y1="348.506" x2="602.521" y2="348.506" gradientUnits="userSpaceOnUse">
<stop stop-color="#3DDEED"/>
<stop offset="0.9966" stop-color="#CB00DD"/>
</linearGradient>
<linearGradient id="paint6_linear" x1="459.76" y1="348.506" x2="603.253" y2="348.506" gradientUnits="userSpaceOnUse">
<stop stop-color="#3DDEED"/>
<stop offset="0.9966" stop-color="#CB00DD"/>
</linearGradient>
<linearGradient id="paint7_linear" x1="457.911" y1="348.506" x2="605.102" y2="348.506" gradientUnits="userSpaceOnUse">
<stop stop-color="#3DDEED"/>
<stop offset="0.9966" stop-color="#CB00DD"/>
</linearGradient>
<linearGradient id="paint8_linear" x1="454.542" y1="348.506" x2="608.47" y2="348.506" gradientUnits="userSpaceOnUse">
<stop stop-color="#3DDEED"/>
<stop offset="0.9966" stop-color="#CB00DD"/>
</linearGradient>
<linearGradient id="paint9_linear" x1="449.538" y1="348.506" x2="613.475" y2="348.506" gradientUnits="userSpaceOnUse">
<stop stop-color="#3DDEED"/>
<stop offset="0.9966" stop-color="#CB00DD"/>
</linearGradient>
<linearGradient id="paint10_linear" x1="443.067" y1="348.506" x2="619.945" y2="348.506" gradientUnits="userSpaceOnUse">
<stop stop-color="#3DDEED"/>
<stop offset="0.9966" stop-color="#CB00DD"/>
</linearGradient>
<linearGradient id="paint11_linear" x1="435.451" y1="348.506" x2="627.562" y2="348.506" gradientUnits="userSpaceOnUse">
<stop stop-color="#3DDEED"/>
<stop offset="0.9966" stop-color="#CB00DD"/>
</linearGradient>
<linearGradient id="paint12_linear" x1="427.231" y1="348.506" x2="635.782" y2="348.506" gradientUnits="userSpaceOnUse">
<stop stop-color="#3DDEED"/>
<stop offset="0.9966" stop-color="#CB00DD"/>
</linearGradient>
<linearGradient id="paint13_linear" x1="418.849" y1="348.506" x2="644.164" y2="348.506" gradientUnits="userSpaceOnUse">
<stop stop-color="#3DDEED"/>
<stop offset="0.9966" stop-color="#CB00DD"/>
</linearGradient>
<linearGradient id="paint14_linear" x1="410.897" y1="348.506" x2="652.116" y2="348.506" gradientUnits="userSpaceOnUse">
<stop stop-color="#3DDEED"/>
<stop offset="0.9966" stop-color="#CB00DD"/>
</linearGradient>
<linearGradient id="paint15_linear" x1="403.862" y1="348.506" x2="659.151" y2="348.506" gradientUnits="userSpaceOnUse">
<stop stop-color="#3DDEED"/>
<stop offset="0.9966" stop-color="#CB00DD"/>
</linearGradient>
<linearGradient id="paint16_linear" x1="398.055" y1="348.506" x2="664.957" y2="348.506" gradientUnits="userSpaceOnUse">
<stop stop-color="#3DDEED"/>
<stop offset="0.9966" stop-color="#CB00DD"/>
</linearGradient>
<linearGradient id="paint17_linear" x1="393.705" y1="348.506" x2="669.307" y2="348.506" gradientUnits="userSpaceOnUse">
<stop stop-color="#3DDEED"/>
<stop offset="0.9966" stop-color="#CB00DD"/>
</linearGradient>
<linearGradient id="paint18_linear" x1="390.867" y1="348.506" x2="672.146" y2="348.506" gradientUnits="userSpaceOnUse">
<stop stop-color="#3DDEED"/>
<stop offset="0.9966" stop-color="#CB00DD"/>
</linearGradient>
<linearGradient id="paint19_linear" x1="389.384" y1="348.506" x2="673.605" y2="348.506" gradientUnits="userSpaceOnUse">
<stop stop-color="#3DDEED"/>
<stop offset="0.9966" stop-color="#CB00DD"/>
</linearGradient>
<linearGradient id="paint20_linear" x1="389" y1="348.506" x2="674.012" y2="348.506" gradientUnits="userSpaceOnUse">
<stop stop-color="#3DDEED"/>
<stop offset="0.9966" stop-color="#CB00DD"/>
</linearGradient>
<linearGradient id="paint21_linear" x1="264.231" y1="451.549" x2="277.073" y2="123.352" gradientUnits="userSpaceOnUse">
<stop stop-color="#3DDEED"/>
<stop offset="0.9966" stop-color="#CB00DD"/>
</linearGradient>
<linearGradient id="paint22_linear" x1="263.885" y1="460.408" x2="277.42" y2="114.494" gradientUnits="userSpaceOnUse">
<stop stop-color="#3DDEED"/>
<stop offset="0.9966" stop-color="#CB00DD"/>
</linearGradient>
<linearGradient id="paint23_linear" x1="263.463" y1="471.182" x2="277.841" y2="103.719" gradientUnits="userSpaceOnUse">
<stop stop-color="#3DDEED"/>
<stop offset="0.9966" stop-color="#CB00DD"/>
</linearGradient>
<linearGradient id="paint24_linear" x1="263.003" y1="482.92" x2="278.3" y2="91.98" gradientUnits="userSpaceOnUse">
<stop stop-color="#3DDEED"/>
<stop offset="0.9966" stop-color="#CB00DD"/>
</linearGradient>
<linearGradient id="paint25_linear" x1="262.532" y1="494.963" x2="278.771" y2="79.9373" gradientUnits="userSpaceOnUse">
<stop stop-color="#3DDEED"/>
<stop offset="0.9966" stop-color="#CB00DD"/>
</linearGradient>
<linearGradient id="paint26_linear" x1="262.053" y1="507.201" x2="279.25" y2="67.6995" gradientUnits="userSpaceOnUse">
<stop stop-color="#3DDEED"/>
<stop offset="0.9966" stop-color="#CB00DD"/>
</linearGradient>
<linearGradient id="paint27_linear" x1="261.591" y1="519.014" x2="279.712" y2="55.8873" gradientUnits="userSpaceOnUse">
<stop stop-color="#3DDEED"/>
<stop offset="0.9966" stop-color="#CB00DD"/>
</linearGradient>
<linearGradient id="paint28_linear" x1="261.161" y1="530.014" x2="280.143" y2="44.8871" gradientUnits="userSpaceOnUse">
<stop stop-color="#3DDEED"/>
<stop offset="0.9966" stop-color="#CB00DD"/>
</linearGradient>
<linearGradient id="paint29_linear" x1="260.775" y1="539.879" x2="280.529" y2="35.0232" gradientUnits="userSpaceOnUse">
<stop stop-color="#3DDEED"/>
<stop offset="0.9966" stop-color="#CB00DD"/>
</linearGradient>
<linearGradient id="paint30_linear" x1="260.444" y1="548.341" x2="280.86" y2="26.56" gradientUnits="userSpaceOnUse">
<stop stop-color="#3DDEED"/>
<stop offset="0.9966" stop-color="#CB00DD"/>
</linearGradient>
<linearGradient id="paint31_linear" x1="260.176" y1="555.196" x2="281.128" y2="19.7048" gradientUnits="userSpaceOnUse">
<stop stop-color="#3DDEED"/>
<stop offset="0.9966" stop-color="#CB00DD"/>
</linearGradient>
<linearGradient id="paint32_linear" x1="259.977" y1="560.28" x2="281.327" y2="14.6212" gradientUnits="userSpaceOnUse">
<stop stop-color="#3DDEED"/>
<stop offset="0.9966" stop-color="#CB00DD"/>
</linearGradient>
<linearGradient id="paint33_linear" x1="259.851" y1="563.485" x2="281.452" y2="11.4172" gradientUnits="userSpaceOnUse">
<stop stop-color="#3DDEED"/>
<stop offset="0.9966" stop-color="#CB00DD"/>
</linearGradient>
<linearGradient id="paint34_linear" x1="259.802" y1="564.741" x2="281.502" y2="10.1597" gradientUnits="userSpaceOnUse">
<stop stop-color="#3DDEED"/>
<stop offset="0.9966" stop-color="#CB00DD"/>
</linearGradient>
<linearGradient id="paint35_linear" x1="259.839" y1="563.804" x2="281.465" y2="11.0968" gradientUnits="userSpaceOnUse">
<stop stop-color="#3DDEED"/>
<stop offset="0.9966" stop-color="#CB00DD"/>
</linearGradient>
<linearGradient id="paint36_linear" x1="259.944" y1="561.121" x2="281.36" y2="13.7807" gradientUnits="userSpaceOnUse">
<stop stop-color="#3DDEED"/>
<stop offset="0.9966" stop-color="#CB00DD"/>
</linearGradient>
<linearGradient id="paint37_linear" x1="260.12" y1="556.607" x2="281.183" y2="18.2942" gradientUnits="userSpaceOnUse">
<stop stop-color="#3DDEED"/>
<stop offset="0.9966" stop-color="#CB00DD"/>
</linearGradient>
<linearGradient id="paint38_linear" x1="260.362" y1="550.423" x2="280.941" y2="24.4783" gradientUnits="userSpaceOnUse">
<stop stop-color="#3DDEED"/>
<stop offset="0.9966" stop-color="#CB00DD"/>
</linearGradient>
<linearGradient id="paint39_linear" x1="260.66" y1="542.822" x2="280.644" y2="32.0796" gradientUnits="userSpaceOnUse">
<stop stop-color="#3DDEED"/>
<stop offset="0.9966" stop-color="#CB00DD"/>
</linearGradient>
<linearGradient id="paint40_linear" x1="260.998" y1="534.188" x2="280.306" y2="40.7125" gradientUnits="userSpaceOnUse">
<stop stop-color="#3DDEED"/>
<stop offset="0.9966" stop-color="#CB00DD"/>
</linearGradient>
<linearGradient id="paint41_linear" x1="261.359" y1="524.938" x2="279.944" y2="49.9626" gradientUnits="userSpaceOnUse">
<stop stop-color="#3DDEED"/>
<stop offset="0.9966" stop-color="#CB00DD"/>
</linearGradient>
<clipPath id="clip0">
<rect width="555" height="520" fill="white" transform="translate(0 554.576) rotate(-87.7593)"/>
</clipPath>
</defs>
</svg>
