<svg width="276" height="63" viewBox="0 0 276 63" fill="none" xmlns="http://www.w3.org/2000/svg">
<path d="M57.8317 56.1266H46.4955L41.3127 46.1036L28.9159 22.0465L16.5291 46.1036L11.3463 56.1266H0.00012207L5.18295 46.1036L28.9159 0L52.6488 46.1036L57.8317 56.1266Z" fill="url(#paint0_linear)"/>
<path d="M103.276 0.0792847V10.1022H80.0236V56.2058H69.8981V10.1022H46.6554V0.0792847H103.276Z" fill="white"/>
<path d="M158.196 46.1829V56.2058H129.441C126.609 56.2058 123.928 55.5621 121.506 54.3637C117.945 52.6007 115.023 49.7087 113.322 46.1829C112.111 43.7762 111.461 41.1318 111.461 38.3289V0.0792847H121.587V39.2896C122.077 42.8155 124.908 45.6283 128.47 46.1037L158.196 46.1829Z" fill="white"/>
<path d="M220.971 56.1266H209.635L204.452 46.1036L192.055 22.0465L179.658 46.1036L174.475 56.1266H163.139L168.322 46.1036L192.055 0L215.788 46.1036L220.971 56.1266Z" fill="white"/>
<path d="M264.875 15.5593V15.2424C264.875 12.4396 262.523 10.1121 259.692 10.1121H236.689C233.858 10.1121 231.506 12.4396 231.506 15.2424V15.5593C231.506 18.3622 233.858 20.6897 236.689 20.6897H257.1C262.363 20.6897 267.066 22.9379 270.308 26.4638C270.548 26.7015 270.708 26.9491 270.958 27.1868C273.469 30.2372 275.01 34.1593 275.01 38.4081C275.01 48.1934 266.996 56.1266 257.11 56.1266H239.371C229.485 56.1266 221.471 48.1934 221.471 38.4081H231.596C231.596 42.657 235.078 46.1036 239.371 46.1036H257.11C261.403 46.1036 264.965 42.657 264.965 38.4081C264.965 34.1593 261.403 30.7126 257.11 30.7126H236.699C232.567 30.7126 228.845 29.1082 226.083 26.4638C225.353 25.7408 224.703 24.9385 224.142 24.0571C222.441 21.6504 221.471 18.689 221.471 15.4801V15.1533C221.471 6.81402 228.275 0 236.699 0H259.702C268.126 0 275.01 6.81402 275.01 15.1533V15.4702L264.875 15.5593Z" fill="white"/>
<path d="M28.6758 63C32.4499 63 35.5095 59.9714 35.5095 56.2355C35.5095 52.4996 32.4499 49.471 28.6758 49.471C24.9016 49.471 21.842 52.4996 21.842 56.2355C21.842 59.9714 24.9016 63 28.6758 63Z" fill="#BA06FB"/>
<defs>
<linearGradient id="paint0_linear" x1="18.1517" y1="28.062" x2="39.2082" y2="28.062" gradientUnits="userSpaceOnUse">
<stop stop-color="#00A69C"/>
<stop offset="0.8384" stop-color="#BA06FB"/>
</linearGradient>
</defs>
</svg>
