<svg width="41" height="28" viewBox="0 0 41 28" fill="none" xmlns="http://www.w3.org/2000/svg">
<path opacity="0.7" d="M20.5727 26.9423L20.5726 27.9423L20.5726 26.9423H20.5722H20.5706L20.5642 26.9423L20.5381 26.9422L20.435 26.9421C20.3443 26.9419 20.2106 26.9415 20.0392 26.9406C19.6962 26.939 19.2024 26.9358 18.6 26.9294C17.3947 26.9165 15.7566 26.8907 14.0233 26.8392C12.2885 26.7876 10.4662 26.7105 8.89026 26.5956C7.28852 26.4788 6.02484 26.3279 5.35377 26.149C4.69063 25.967 4.08551 25.6173 3.59673 25.1336C3.11841 24.6602 2.7673 24.074 2.57554 23.4295C2.02169 20.3411 1.75291 17.2082 1.77262 14.0705H1.77268L1.77262 14.0593C1.75721 10.9395 2.02697 7.82492 2.57854 4.75431C2.7523 4.08274 3.09761 3.46763 3.58085 2.96945C4.06979 2.46539 4.68266 2.09881 5.35795 1.90645C6.03007 1.72798 7.29184 1.57751 8.89026 1.46092C10.4662 1.34597 12.2885 1.26887 14.0233 1.21732C15.7566 1.16581 17.3947 1.14003 18.6 1.12714C19.2024 1.12069 19.6962 1.11747 20.0392 1.11586C20.2106 1.11506 20.3443 1.11466 20.435 1.11446L20.5381 1.11428L20.5642 1.11426L20.5706 1.11426L20.5722 1.11426H20.5726L20.5726 0.114258L20.5727 1.11426H20.5731L20.5747 1.11426L20.5811 1.11426L20.6073 1.11428L20.7104 1.11444C20.8012 1.11462 20.935 1.11499 21.1065 1.11573C21.4496 1.1172 21.9436 1.12014 22.5462 1.12602C23.7519 1.1378 25.3905 1.16134 27.1245 1.20839C28.86 1.25548 30.6836 1.32591 32.2613 1.43099C33.8511 1.53686 35.1152 1.67371 35.7977 1.83744C36.4689 2.03059 37.078 2.39598 37.5644 2.89745C38.0477 3.39563 38.393 4.01073 38.5667 4.68229C39.1226 7.77613 39.3924 10.9146 39.3727 14.058L39.3726 14.058L39.3726 14.0679C39.3838 17.164 39.114 20.2548 38.5667 23.3022C38.393 23.9738 38.0477 24.5889 37.5644 25.0871C37.0755 25.5911 36.4627 25.9577 35.7874 26.15C35.1153 26.3285 33.8535 26.479 32.255 26.5956C30.679 26.7105 28.8568 26.7876 27.1219 26.8392C25.3887 26.8907 23.7506 26.9165 22.5453 26.9294C21.9429 26.9358 21.4491 26.939 21.1061 26.9406C20.9347 26.9415 20.8009 26.9419 20.7103 26.9421L20.6072 26.9422L20.5811 26.9423L20.5746 26.9423H20.5731H20.5727Z" stroke="url(#paint0_linear)" stroke-width="2"/>
<path opacity="0.7" d="M17.5227 9.89732L24.8498 14.0642L17.5227 18.2311V9.89732Z" stroke="url(#paint1_linear)" stroke-width="2"/>
<defs>
<linearGradient id="paint0_linear" x1="40.6468" y1="27.9423" x2="-3.15367" y2="14.3997" gradientUnits="userSpaceOnUse">
<stop stop-color="#00FFF0"/>
<stop offset="0.536458" stop-color="#0047FF"/>
<stop offset="1" stop-color="#BA06FB"/>
</linearGradient>
<linearGradient id="paint1_linear" x1="26.9441" y1="19.9502" x2="14.844" y2="17.6389" gradientUnits="userSpaceOnUse">
<stop stop-color="#00FFF0"/>
<stop offset="0.536458" stop-color="#0047FF"/>
<stop offset="1" stop-color="#BA06FB"/>
</linearGradient>
</defs>
</svg>
